# https://github.com/mikedh/trimesh

o OpenSCAD_Model
v -1.79075291 0.91682408 0.45922304
v -1.79075291 0.91682408 0.86746928
v -1.79075291 1.02314380 0.45922304
v -1.79075291 1.02314380 -0.45933098
v -1.79075291 0.91682408 -0.86757722
v -1.79075291 0.91682408 -0.45933098
v -1.79075291 1.13115336 -0.86757722
v -1.79075291 1.13115336 0.86746928
v -0.05570642 1.13115336 -0.86757722
v -0.18328337 1.13115336 -0.74000027
v -0.05570642 1.13115336 0.86746928
v -1.66317596 1.13115336 -0.74000027
v -1.66317596 1.13115336 0.73989233
v -0.18328337 1.13115336 0.73989233
v -0.05570642 0.91682408 -0.86757722
v -0.05570642 0.91682408 0.86746928
v -1.42031487 0.91682408 -0.42871252
v -1.67568361 0.91682408 -0.42871252
v -1.42031487 0.91682408 -0.45933098
v -0.68831202 0.91682408 0.15303837
v -1.29572067 0.91682408 0.45922304
v -1.42031487 0.91682408 0.45922304
v -1.67568361 0.91682408 0.45922304
v -1.42031487 0.91682408 0.42860457
v -0.68831202 0.91682408 -0.15314631
v -1.29572067 0.91682408 -0.45933098
v -1.29572067 0.91682408 -0.15314631
v -1.67568361 0.91682408 -0.45933098
v -1.29572067 0.91682408 0.15303837
v -1.67568361 0.91682408 0.42860457
v -1.66317596 1.11247415 -0.45933098
v -1.66317596 1.06991642 -0.74000027
v -1.66317596 1.11247415 0.45922304
v -1.66317596 1.06991642 0.73989233
v -1.66317596 1.06991642 0.45922304
v -1.66317596 1.06991642 -0.45933098
v -0.18328337 1.06991642 0.73989233
v -0.18328337 1.06991642 -0.74000027
v -0.92322966 2.64421596 -0.17866170
v -0.92322966 2.95805525 -0.17866170
v -0.99291883 2.95119161 -0.17866170
v -0.93169189 2.64338416 -0.17866170
v -1.05992989 2.93086605 -0.17866170
v -0.85354050 2.95119161 -0.17866170
v -0.93982896 2.64091427 -0.17866170
v -1.12168785 2.89785424 -0.17866170
v -0.91476743 2.64338416 -0.17866170
v -0.94732813 2.63690325 -0.17866170
v -1.17581926 2.85342684 -0.17866170
v -0.78652943 2.93086605 -0.17866170
v -0.95390120 2.63150929 -0.17866170
v -1.22024360 2.79929850 -0.17866170
v -0.90663037 2.64091427 -0.17866170
v -0.95929562 2.62493653 -0.17866170
v -1.25325388 2.73754105 -0.17866170
v -0.72477147 2.89785424 -0.17866170
v -0.96330398 2.61744011 -0.17866170
v -1.27358148 2.67052743 -0.17866170
v -0.89913120 2.63690325 -0.17866170
v -0.67064006 2.85342684 -0.17866170
v -0.96577234 2.60930070 -0.17866170
v -1.28044512 2.60083980 -0.17866170
v -0.96660578 2.60083980 -0.17866170
v -0.96577234 2.59237889 -0.17866170
v -0.96330398 2.58423948 -0.17866170
v -0.95929562 2.57674306 -0.17866170
v -0.95390120 2.57017030 -0.17866170
v -0.94732813 2.56477634 -0.17866170
v -0.93982896 2.56076533 -0.17866170
v -0.93885258 1.10763342 -0.17866170
v -0.93169189 2.55829544 -0.17866170
v -0.92322966 1.11074099 -0.17866170
v -0.92322966 2.55746363 -0.17866170
v -0.93119414 1.10995660 -0.17866170
v -1.28044512 1.06991642 -0.17866170
v -0.94591060 1.10386082 -0.17866170
v -0.95209701 1.09878377 -0.17866170
v -0.95717406 1.09259736 -0.17866170
v -0.96094667 1.08553934 -0.17866170
v -0.96326984 1.07788090 -0.17866170
v -0.96405424 1.06991642 -0.17866170
v -0.89255812 2.63150929 -0.17866170
v -0.62621573 2.79929850 -0.17866170
v -0.88716371 2.62493653 -0.17866170
v -0.59320545 2.73754105 -0.17866170
v -0.88315535 2.61744011 -0.17866170
v -0.57287785 2.67052743 -0.17866170
v -0.88068699 2.60930070 -0.17866170
v -0.87985355 2.60083980 -0.17866170
v -0.56601421 2.60083980 -0.17866170
v -0.88068699 2.59237889 -0.17866170
v -0.88315535 2.58423948 -0.17866170
v -0.88716371 2.57674306 -0.17866170
v -0.89255812 2.57017030 -0.17866170
v -0.89913120 2.56477634 -0.17866170
v -0.90663037 2.56076533 -0.17866170
v -0.90760674 1.10763342 -0.17866170
v -0.91476743 2.55829544 -0.17866170
v -0.91526519 1.10995660 -0.17866170
v -0.56601421 1.06991642 -0.17866170
v -0.90054873 1.10386082 -0.17866170
v -0.89436232 1.09878377 -0.17866170
v -0.88928527 1.09259736 -0.17866170
v -0.88551266 1.08553934 -0.17866170
v -0.88318949 1.07788090 -0.17866170
v -0.88240509 1.06991642 -0.17866170
v -1.28044512 2.60083980 -0.38278482
v -1.28044512 1.06991642 -0.38278482
v -0.92322966 2.64421596 -0.38278482
v -0.92322966 2.95805525 -0.38278482
v -0.85354050 2.95119161 -0.38278482
v -0.91476743 2.64338416 -0.38278482
v -0.78652943 2.93086605 -0.38278482
v -0.99291883 2.95119161 -0.38278482
v -0.90663037 2.64091427 -0.38278482
v -0.72477147 2.89785424 -0.38278482
v -0.93169189 2.64338416 -0.38278482
v -0.89913120 2.63690325 -0.38278482
v -0.67064006 2.85342684 -0.38278482
v -1.05992989 2.93086605 -0.38278482
v -0.89255812 2.63150929 -0.38278482
v -0.62621573 2.79929850 -0.38278482
v -0.93982896 2.64091427 -0.38278482
v -0.88716371 2.62493653 -0.38278482
v -0.59320545 2.73754105 -0.38278482
v -1.12168785 2.89785424 -0.38278482
v -0.88315535 2.61744011 -0.38278482
v -0.57287785 2.67052743 -0.38278482
v -0.94732813 2.63690325 -0.38278482
v -1.17581926 2.85342684 -0.38278482
v -0.88068699 2.60930070 -0.38278482
v -0.56601421 2.60083980 -0.38278482
v -0.87985355 2.60083980 -0.38278482
v -0.88068699 2.59237889 -0.38278482
v -0.88315535 2.58423948 -0.38278482
v -0.88716371 2.57674306 -0.38278482
v -0.89255812 2.57017030 -0.38278482
v -0.89913120 2.56477634 -0.38278482
v -0.90663037 2.56076533 -0.38278482
v -0.90760674 1.10763342 -0.38278482
v -0.91476743 2.55829544 -0.38278482
v -0.92322966 1.11074099 -0.38278482
v -0.92322966 2.55746363 -0.38278482
v -0.91526519 1.10995660 -0.38278482
v -0.56601421 1.06991642 -0.38278482
v -0.90054873 1.10386082 -0.38278482
v -0.89436232 1.09878377 -0.38278482
v -0.88928527 1.09259736 -0.38278482
v -0.88551266 1.08553934 -0.38278482
v -0.88318949 1.07788090 -0.38278482
v -0.88240509 1.06991642 -0.38278482
v -0.95390120 2.63150929 -0.38278482
v -1.22024360 2.79929850 -0.38278482
v -0.95929562 2.62493653 -0.38278482
v -1.25325388 2.73754105 -0.38278482
v -0.96330398 2.61744011 -0.38278482
v -1.27358148 2.67052743 -0.38278482
v -0.96577234 2.60930070 -0.38278482
v -0.96660578 2.60083980 -0.38278482
v -0.96577234 2.59237889 -0.38278482
v -0.96330398 2.58423948 -0.38278482
v -0.95929562 2.57674306 -0.38278482
v -0.95390120 2.57017030 -0.38278482
v -0.94732813 2.56477634 -0.38278482
v -0.93982896 2.56076533 -0.38278482
v -0.93885258 1.10763342 -0.38278482
v -0.93169189 2.55829544 -0.38278482
v -0.93119414 1.10995660 -0.38278482
v -0.94591060 1.10386082 -0.38278482
v -0.95209701 1.09878377 -0.38278482
v -0.95717406 1.09259736 -0.38278482
v -0.96094667 1.08553934 -0.38278482
v -0.96326984 1.07788090 -0.38278482
v -0.96405424 1.06991642 -0.38278482
v -0.96405424 1.06991642 0.38267687
v -1.28044512 1.06991642 0.38267687
v -0.96405424 1.06991642 0.51025382
v -0.88240509 1.06991642 -0.51036176
v -0.96524973 1.06991642 -0.15314631
v -0.96405424 1.06991642 0.17855376
v -1.20336364 1.06991642 -0.15314631
v -1.20336364 1.06991642 0.15303837
v -0.96524973 1.06991642 0.15303837
v -1.28044512 1.06991642 0.17855376
v -0.64309569 1.06991642 -0.15314631
v -0.56601421 1.06991642 0.17855376
v -0.88120959 1.06991642 -0.15314631
v -0.88120959 1.06991642 0.15303837
v -0.96405424 1.06991642 -0.51036176
v -1.40291695 1.06991642 -0.45933098
v -1.40291695 1.06991642 0.45922304
v -0.56601421 1.06991642 0.38267687
v -0.88240509 1.06991642 0.51025382
v -0.88240509 1.06991642 0.38267687
v -0.64309569 1.06991642 0.15303837
v -0.88240509 1.06991642 0.17855376
v -0.92322966 2.65187058 0.38267687
v -0.92322966 2.95805525 0.38267687
v -0.99291883 2.95119161 0.38267687
v -0.93318526 2.65089078 0.38267687
v -1.05992989 2.93086605 0.38267687
v -0.85354050 2.95119161 0.38267687
v -0.94275828 2.64798713 0.38267687
v -1.12168785 2.89785424 0.38267687
v -0.91327407 2.65089078 0.38267687
v -0.95158083 2.64327189 0.38267687
v -1.17581926 2.85342684 0.38267687
v -0.78652943 2.93086605 0.38267687
v -0.95931389 2.63692366 0.38267687
v -1.22024360 2.79929850 0.38267687
v -0.90370105 2.64798713 0.38267687
v -0.96566023 2.62919250 0.38267687
v -1.25325388 2.73754105 0.38267687
v -0.72477147 2.89785424 0.38267687
v -0.97037593 2.62036928 0.38267687
v -1.27358148 2.67052743 0.38267687
v -0.89487849 2.64327189 0.38267687
v -0.67064006 2.85342684 0.38267687
v -0.97327984 2.61079590 0.38267687
v -1.28044512 2.60083980 0.38267687
v -0.97426044 2.60083980 0.38267687
v -0.97327984 2.59088369 0.38267687
v -0.97037593 2.58131032 0.38267687
v -0.96566023 2.57248710 0.38267687
v -0.95931389 2.56475593 0.38267687
v -0.95158083 2.55840770 0.38267687
v -0.94275828 2.55369246 0.38267687
v -0.93318526 2.55078881 0.38267687
v -0.92322966 1.11074099 0.38267687
v -0.92322966 2.54980902 0.38267687
v -0.93885258 1.10763342 0.38267687
v -0.93119414 1.10995660 0.38267687
v -0.94591060 1.10386082 0.38267687
v -0.95209701 1.09878377 0.38267687
v -0.95717406 1.09259736 0.38267687
v -0.96094667 1.08553934 0.38267687
v -0.96326984 1.07788090 0.38267687
v -0.88714544 2.63692366 0.38267687
v -0.62621573 2.79929850 0.38267687
v -0.88079910 2.62919250 0.38267687
v -0.59320545 2.73754105 0.38267687
v -0.87608340 2.62036928 0.38267687
v -0.57287785 2.67052743 0.38267687
v -0.87317949 2.61079590 0.38267687
v -0.87219888 2.60083980 0.38267687
v -0.56601421 2.60083980 0.38267687
v -0.87317949 2.59088369 0.38267687
v -0.87608340 2.58131032 0.38267687
v -0.88079910 2.57248710 0.38267687
v -0.88714544 2.56475593 0.38267687
v -0.89487849 2.55840770 0.38267687
v -0.90370105 2.55369246 0.38267687
v -0.90760674 1.10763342 0.38267687
v -0.91327407 2.55078881 0.38267687
v -0.91526519 1.10995660 0.38267687
v -0.90054873 1.10386082 0.38267687
v -0.89436232 1.09878377 0.38267687
v -0.88928527 1.09259736 0.38267687
v -0.88551266 1.08553934 0.38267687
v -0.88318949 1.07788090 0.38267687
v -1.28044512 2.60083980 0.17855376
v -0.92322966 2.65187058 0.17855376
v -0.92322966 2.95805525 0.17855376
v -0.85354050 2.95119161 0.17855376
v -0.91327407 2.65089078 0.17855376
v -0.78652943 2.93086605 0.17855376
v -0.99291883 2.95119161 0.17855376
v -0.90370105 2.64798713 0.17855376
v -0.72477147 2.89785424 0.17855376
v -0.93318526 2.65089078 0.17855376
v -0.89487849 2.64327189 0.17855376
v -0.67064006 2.85342684 0.17855376
v -1.05992989 2.93086605 0.17855376
v -0.88714544 2.63692366 0.17855376
v -0.62621573 2.79929850 0.17855376
v -0.94275828 2.64798713 0.17855376
v -0.88079910 2.62919250 0.17855376
v -0.59320545 2.73754105 0.17855376
v -1.12168785 2.89785424 0.17855376
v -0.87608340 2.62036928 0.17855376
v -0.57287785 2.67052743 0.17855376
v -0.95158083 2.64327189 0.17855376
v -1.17581926 2.85342684 0.17855376
v -0.87317949 2.61079590 0.17855376
v -0.56601421 2.60083980 0.17855376
v -0.87219888 2.60083980 0.17855376
v -0.87317949 2.59088369 0.17855376
v -0.87608340 2.58131032 0.17855376
v -0.88079910 2.57248710 0.17855376
v -0.88714544 2.56475593 0.17855376
v -0.89487849 2.55840770 0.17855376
v -0.90370105 2.55369246 0.17855376
v -0.91327407 2.55078881 0.17855376
v -0.92322966 1.11074099 0.17855376
v -0.92322966 2.54980902 0.17855376
v -0.90760674 1.10763342 0.17855376
v -0.91526519 1.10995660 0.17855376
v -0.90054873 1.10386082 0.17855376
v -0.89436232 1.09878377 0.17855376
v -0.88928527 1.09259736 0.17855376
v -0.88551266 1.08553934 0.17855376
v -0.88318949 1.07788090 0.17855376
v -0.95931389 2.63692366 0.17855376
v -1.22024360 2.79929850 0.17855376
v -0.96566023 2.62919250 0.17855376
v -1.25325388 2.73754105 0.17855376
v -0.97037593 2.62036928 0.17855376
v -1.27358148 2.67052743 0.17855376
v -0.97327984 2.61079590 0.17855376
v -0.97426044 2.60083980 0.17855376
v -0.97327984 2.59088369 0.17855376
v -0.97037593 2.58131032 0.17855376
v -0.96566023 2.57248710 0.17855376
v -0.95931389 2.56475593 0.17855376
v -0.95158083 2.55840770 0.17855376
v -0.94275828 2.55369246 0.17855376
v -0.93885258 1.10763342 0.17855376
v -0.93318526 2.55078881 0.17855376
v -0.93119414 1.10995660 0.17855376
v -0.94591060 1.10386082 0.17855376
v -0.95209701 1.09878377 0.17855376
v -0.95717406 1.09259736 0.17855376
v -0.96094667 1.08553934 0.17855376
v -0.96326984 1.07788090 0.17855376
v 3.31232501 0.91682408 0.15303837
v 3.31232501 2.62635519 -0.15314631
v 3.31232501 0.91682408 -0.15314631
v 3.31232501 2.62635519 0.15303837
v 3.82263280 2.62635519 0.15303837
v 3.82263280 0.91682408 -0.15314631
v 3.82263280 2.62635519 -0.15314631
v 3.82263280 0.91682408 0.15303837
v 3.79270325 2.58155527 -0.15314631
v 3.79711741 2.62635519 -0.15314631
v 3.77963937 2.53847508 -0.15314631
v 3.61227883 2.40113084 -0.15314631
v 3.56747891 2.39671668 -0.15314631
v 3.65535901 2.41419472 -0.15314631
v 3.69506096 2.43541842 -0.15314631
v 3.72985885 2.46397525 -0.15314631
v 3.75841567 2.49877314 -0.15314631
v 3.34225456 2.58155527 -0.15314631
v 3.33784040 2.62635519 -0.15314631
v 3.35531844 2.53847508 -0.15314631
v 3.52267899 2.40113084 -0.15314631
v 3.47959880 2.41419472 -0.15314631
v 3.43989686 2.43541842 -0.15314631
v 3.40509897 2.46397525 -0.15314631
v 3.37654214 2.49877314 -0.15314631
v 3.34225456 2.58155527 0.15303837
v 3.33784040 2.62635519 0.15303837
v 3.35531844 2.53847508 0.15303837
v 3.52267899 2.40113084 0.15303837
v 3.56747891 2.39671668 0.15303837
v 3.47959880 2.41419472 0.15303837
v 3.43989686 2.43541842 0.15303837
v 3.40509897 2.46397525 0.15303837
v 3.37654214 2.49877314 0.15303837
v 3.79270325 2.58155527 0.15303837
v 3.79711741 2.62635519 0.15303837
v 3.77963937 2.53847508 0.15303837
v 3.61227883 2.40113084 0.15303837
v 3.65535901 2.41419472 0.15303837
v 3.69506096 2.43541842 0.15303837
v 3.72985885 2.46397525 0.15303837
v 3.75841567 2.49877314 0.15303837
v 2.87027599 3.88190117 -0.15314631
v 3.39280055 4.24777655 0.15303837
v 3.39280055 4.24777655 -0.15314631
v 2.87027599 3.88190117 0.15303837
v -0.79282612 1.31696867 -0.15314631
v -0.22306696 1.71591505 0.15303837
v -0.22306696 1.71591505 -0.15314631
v -0.79282612 1.31696867 0.15303837
v -0.13946324 1.77445756 -0.15314631
v 0.27855539 2.06715991 0.15303837
v 0.27855539 2.06715991 -0.15314631
v -0.13946324 1.77445756 0.15303837
v 0.36215912 2.12569731 -0.15314631
v 0.78017775 2.41839966 0.15303837
v 0.78017775 2.41839966 -0.15314631
v 0.36215912 2.12569731 0.15303837
v 0.86378147 2.47693706 -0.15314631
v 1.28180010 2.76963941 0.15303837
v 1.28180010 2.76963941 -0.15314631
v 0.86378147 2.47693706 0.15303837
v 1.36540383 2.82817681 -0.15314631
v 1.78342756 3.12087916 0.15303837
v 1.78342756 3.12087916 -0.15314631
v 1.36540383 2.82817681 0.15303837
v 1.86703128 3.17942167 -0.15314631
v 2.28504991 3.47211891 0.15303837
v 2.28504991 3.47211891 -0.15314631
v 1.86703128 3.17942167 0.15303837
v 2.36865364 3.53066142 -0.15314631
v 2.78667226 3.82335866 0.15303837
v 2.78667226 3.82335866 -0.15314631
v 2.36865364 3.53066142 0.15303837
v 3.58305860 3.97606316 -0.15314631
v 3.58305860 3.97606316 0.15303837
v 3.20473682 3.80460485 -0.15314631
v 2.88784078 3.85681954 -0.15314631
v 3.24864370 3.74190333 -0.15314631
v 2.80423706 3.79828213 -0.15314631
v 2.38621333 3.50557979 -0.15314631
v 2.30260960 3.44703728 -0.15314631
v 1.88459097 3.15434004 -0.15314631
v 1.80098725 3.09579753 -0.15314631
v 1.38296862 2.80310029 -0.15314631
v 1.29936489 2.74455778 -0.15314631
v 0.88134627 2.45185544 -0.15314631
v -0.64647597 1.10795890 -0.15314631
v 0.79774254 2.39331803 -0.15314631
v 0.37971881 2.10061569 -0.15314631
v 0.29611508 2.04207828 -0.15314631
v -0.12190354 1.74937594 -0.15314631
v -0.20550727 1.69083853 -0.15314631
v -0.98397772 1.34393282 -0.15314631
v -0.93234187 1.11101880 -0.15314631
v -1.03626845 1.32681608 -0.15314631
v -0.94018551 1.10845139 -0.15314631
v -1.08421493 1.29982743 -0.15314631
v -0.94737743 1.10440302 -0.15314631
v -0.95364146 1.09902943 -0.15314631
v -1.12597495 1.26400280 -0.15314631
v -0.88874306 1.09406418 -0.15314631
v -0.91591899 1.11137719 -0.15314631
v -0.92414806 1.11200676 -0.15314631
v -0.90797090 1.10915429 -0.15314631
v -0.90060915 1.10542348 -0.15314631
v -0.89411666 1.10032821 -0.15314631
v -0.88469469 1.08687226 -0.15314631
v -0.88212728 1.07902863 -0.15314631
v -0.64262723 1.07603920 -0.15314631
v -0.88113932 1.07083482 -0.15314631
v -0.92935244 1.35051886 -0.15314631
v -0.87449195 1.34632157 -0.15314631
v -0.82150440 1.33150224 -0.15314631
v -1.15994359 1.22072003 -0.15314631
v -0.95873673 1.09253694 -0.15314631
v -1.18481548 1.17164169 -0.15314631
v -0.96246754 1.08517518 -0.15314631
v -1.19963482 1.11865413 -0.15314631
v -0.96469044 1.07722709 -0.15314631
v -0.81019087 0.81301676 -0.15314631
v -1.05363321 0.82286417 -0.15314631
v -0.76224440 0.84000541 -0.15314631
v -0.86248160 0.79590002 -0.15314631
v -0.97196738 0.79351127 -0.15314631
v -1.02495493 0.80833060 -0.15314631
v -0.91710689 0.78931398 -0.15314631
v -0.72048438 0.87583004 -0.15314631
v -1.17192970 0.74003203 -0.15314631
v -1.17192970 0.74003203 0.15303837
v -1.05363321 0.82286417 0.15303837
v -0.64647597 1.10795890 0.15303837
v 3.20473682 3.80460485 0.15303837
v -0.92414806 1.11200676 0.15303837
v -0.92935244 1.35051886 0.15303837
v -0.98397772 1.34393282 0.15303837
v -0.87449195 1.34632157 0.15303837
v -0.93234187 1.11101880 0.15303837
v -1.03626845 1.32681608 0.15303837
v -0.91591899 1.11137719 0.15303837
v -0.94018551 1.10845139 0.15303837
v -1.08421493 1.29982743 0.15303837
v -0.20550727 1.69083853 0.15303837
v 0.29611508 2.04207828 0.15303837
v 0.79774254 2.39331803 0.15303837
v 1.29936489 2.74455778 0.15303837
v 1.80098725 3.09579753 0.15303837
v 2.30260960 3.44703728 0.15303837
v 2.80423706 3.79828213 0.15303837
v 2.88784078 3.85681954 0.15303837
v 2.38621333 3.50557979 0.15303837
v 1.88459097 3.15434004 0.15303837
v 1.38296862 2.80310029 0.15303837
v 0.88134627 2.45185544 0.15303837
v 0.37971881 2.10061569 0.15303837
v -0.12190354 1.74937594 0.15303837
v -0.94737743 1.10440302 0.15303837
v -1.12597495 1.26400280 0.15303837
v -0.95364146 1.09902943 0.15303837
v -1.15994359 1.22072003 0.15303837
v -0.95873673 1.09253694 0.15303837
v -1.18481548 1.17164169 0.15303837
v -0.96246754 1.08517518 0.15303837
v -1.19963482 1.11865413 0.15303837
v -0.90797090 1.10915429 0.15303837
v -0.82150440 1.33150224 0.15303837
v -0.90060915 1.10542348 0.15303837
v -0.89411666 1.10032821 0.15303837
v -0.88874306 1.09406418 0.15303837
v -0.88469469 1.08687226 0.15303837
v -0.88212728 1.07902863 0.15303837
v -0.88113932 1.07083482 0.15303837
v -0.64262723 1.07603920 0.15303837
v 3.24864370 3.74190333 0.15303837
v -0.96469044 1.07722709 0.15303837
v -0.72048438 0.87583004 0.15303837
v -0.76224440 0.84000541 0.15303837
v -0.81019087 0.81301676 0.15303837
v -0.97196738 0.79351127 0.15303837
v -1.02495493 0.80833060 0.15303837
v -0.86248160 0.79590002 0.15303837
v -0.91710689 0.78931398 0.15303837
v -1.65050502 0.00000000 0.45922304
v -2.17736720 0.75243404 -0.45933098
v -1.65050502 0.00000000 -0.45933098
v -2.17736720 0.75243404 0.45922304
v -1.50853739 1.22075473 0.45922304
v -1.50853739 1.22075473 -0.45933098
v -0.98167419 0.46831967 -0.45933098
v -0.98167419 0.46831967 0.45922304
v -2.00595481 0.68556790 0.45922304
v -1.65470996 0.18394555 0.45922304
v -1.15308862 0.53518530 0.45922304
v -1.15308862 0.53518530 -0.45933098
v -1.65470996 0.18394555 -0.45933098
v -2.00595481 0.68556790 -0.45933098
v -1.65470996 0.18394555 0.42860457
v -2.00595481 0.68556790 0.42860457
v -1.15308862 0.53518530 0.42860457
v -2.00595481 0.68556790 -0.42871252
v -1.65470996 0.18394555 -0.42871252
v -1.15308862 0.53518530 -0.42871252
v -0.91526519 1.10995660 0.51025382
v -0.92322966 1.11074099 0.51025382
v -0.92322966 1.11074099 -0.51036176
v -0.91526519 1.10995660 -0.51036176
v -0.88551266 1.08553934 -0.51036176
v -0.88928527 1.09259736 -0.51036176
v -0.88928527 1.09259736 0.51025382
v -0.88551266 1.08553934 0.51025382
v -0.93119414 1.10995660 -0.51036176
v -0.90760674 1.10763342 -0.51036176
v -0.93885258 1.10763342 -0.51036176
v -0.90054873 1.10386082 -0.51036176
v -0.94591060 1.10386082 -0.51036176
v -0.89436232 1.09878377 -0.51036176
v -0.95209701 1.09878377 -0.51036176
v -0.95717406 1.09259736 -0.51036176
v -0.96094667 1.08553934 -0.51036176
v -0.88318949 1.07788090 -0.51036176
v -0.96326984 1.07788090 -0.51036176
v -0.93119414 1.10995660 0.51025382
v -0.93885258 1.10763342 0.51025382
v -0.90760674 1.10763342 0.51025382
v -0.94591060 1.10386082 0.51025382
v -0.90054873 1.10386082 0.51025382
v -0.95209701 1.09878377 0.51025382
v -0.89436232 1.09878377 0.51025382
v -0.95717406 1.09259736 0.51025382
v -0.96094667 1.08553934 0.51025382
v -0.96326984 1.07788090 0.51025382
v -0.88318949 1.07788090 0.51025382
f 1 2 3
f 4 5 6
f 5 4 7
f 3 7 4
f 3 8 7
f 8 3 2
f 9 10 11
f 9 12 10
f 12 7 13
f 7 12 9
f 14 11 10
f 13 11 14
f 13 8 11
f 8 13 7
f 11 15 9
f 15 11 16
f 17 18 19
f 16 20 15
f 16 21 20
f 2 21 16
f 22 23 24
f 21 2 22
f 22 2 23
f 23 2 1
f 25 15 20
f 26 25 27
f 25 26 15
f 5 26 19
f 28 19 18
f 5 19 28
f 5 28 6
f 26 5 15
f 20 21 29
f 24 23 30
f 2 11 8
f 11 2 16
f 15 7 9
f 7 15 5
f 12 31 32
f 12 33 31
f 13 33 12
f 34 33 13
f 33 34 35
f 32 31 36
f 37 10 38
f 10 37 14
f 32 10 12
f 10 32 38
f 37 13 14
f 13 37 34
f 39 40 41
f 42 41 43
f 40 39 44
f 45 43 46
f 47 44 39
f 48 46 49
f 44 47 50
f 51 49 52
f 53 50 47
f 54 52 55
f 50 53 56
f 57 55 58
f 59 56 53
f 56 59 60
f 41 42 39
f 43 45 42
f 46 48 45
f 49 51 48
f 52 54 51
f 55 57 54
f 58 61 57
f 62 61 58
f 62 63 61
f 62 64 63
f 62 65 64
f 62 66 65
f 62 67 66
f 62 68 67
f 62 69 68
f 70 69 62
f 71 72 73
f 69 70 71
f 71 74 72
f 71 70 74
f 75 70 62
f 70 75 76
f 76 75 77
f 77 75 78
f 78 75 79
f 79 75 80
f 80 75 81
f 82 60 59
f 60 82 83
f 84 83 82
f 83 84 85
f 86 85 84
f 85 86 87
f 88 87 86
f 89 87 88
f 89 90 87
f 91 90 89
f 92 90 91
f 93 90 92
f 94 90 93
f 95 90 94
f 96 90 95
f 97 96 98
f 72 98 73
f 99 98 72
f 97 98 99
f 96 97 90
f 100 97 101
f 100 101 102
f 100 102 103
f 100 103 104
f 100 104 105
f 100 105 106
f 97 100 90
f 75 107 108
f 107 75 62
f 109 110 111
f 112 111 113
f 110 109 114
f 115 113 116
f 117 114 109
f 118 116 119
f 114 117 120
f 121 119 122
f 123 120 117
f 124 122 125
f 120 123 126
f 127 125 128
f 129 126 123
f 126 129 130
f 111 112 109
f 113 115 112
f 116 118 115
f 119 121 118
f 122 124 121
f 125 127 124
f 128 131 127
f 132 131 128
f 132 133 131
f 132 134 133
f 132 135 134
f 132 136 135
f 132 137 136
f 132 138 137
f 132 139 138
f 140 139 132
f 141 142 143
f 139 140 141
f 141 144 142
f 141 140 144
f 145 140 132
f 140 145 146
f 146 145 147
f 147 145 148
f 148 145 149
f 149 145 150
f 150 145 151
f 152 130 129
f 130 152 153
f 154 153 152
f 153 154 155
f 156 155 154
f 155 156 157
f 158 157 156
f 159 157 158
f 159 107 157
f 160 107 159
f 161 107 160
f 162 107 161
f 163 107 162
f 164 107 163
f 165 107 164
f 166 165 167
f 142 167 143
f 168 167 142
f 166 167 168
f 165 166 107
f 108 166 169
f 108 169 170
f 108 170 171
f 108 171 172
f 108 172 173
f 108 173 174
f 166 108 107
f 175 176 177
f 145 178 151
f 81 179 180
f 81 181 179
f 181 75 182
f 75 181 81
f 183 180 179
f 182 180 183
f 182 184 180
f 184 182 75
f 100 185 186
f 106 185 100
f 187 106 188
f 185 106 187
f 100 38 145
f 38 178 145
f 38 189 178
f 189 108 174
f 190 75 108
f 75 190 184
f 191 184 190
f 189 190 108
f 32 189 38
f 189 32 190
f 190 32 36
f 38 100 37
f 186 37 100
f 192 37 186
f 193 192 194
f 192 193 37
f 177 37 193
f 184 191 176
f 191 177 176
f 34 177 191
f 34 191 35
f 177 34 37
f 195 186 185
f 196 195 188
f 195 196 186
f 196 188 106
f 90 145 132
f 145 90 100
f 87 132 128
f 132 87 90
f 110 44 111
f 44 110 40
f 52 130 153
f 130 52 49
f 60 122 119
f 122 60 83
f 114 40 110
f 40 114 41
f 62 157 107
f 157 62 58
f 111 50 113
f 50 111 44
f 116 60 119
f 60 116 56
f 83 125 122
f 125 83 85
f 130 46 126
f 46 130 49
f 58 155 157
f 155 58 55
f 113 56 116
f 56 113 50
f 85 128 125
f 128 85 87
f 55 153 155
f 153 55 52
f 120 41 114
f 41 120 43
f 126 43 120
f 43 126 46
f 139 95 138
f 95 139 96
f 64 161 160
f 161 64 65
f 89 131 133
f 131 89 88
f 45 117 42
f 117 45 123
f 165 71 167
f 71 165 69
f 65 162 161
f 162 65 66
f 92 134 135
f 134 92 91
f 93 135 136
f 135 93 92
f 94 136 137
f 136 94 93
f 138 94 137
f 94 138 95
f 143 98 141
f 98 143 73
f 141 96 139
f 96 141 98
f 63 160 159
f 160 63 64
f 66 163 162
f 163 66 67
f 164 69 165
f 69 164 68
f 167 73 143
f 73 167 71
f 163 68 164
f 68 163 67
f 91 133 134
f 133 91 89
f 39 112 47
f 112 39 109
f 86 124 127
f 124 86 84
f 88 127 131
f 127 88 86
f 47 115 53
f 115 47 112
f 53 118 59
f 118 53 115
f 42 109 39
f 109 42 117
f 51 129 48
f 129 51 152
f 54 156 154
f 156 54 57
f 61 159 158
f 159 61 63
f 84 121 124
f 121 84 82
f 59 121 82
f 121 59 118
f 48 123 45
f 123 48 129
f 57 158 156
f 158 57 61
f 51 154 152
f 154 51 54
f 197 198 199
f 200 199 201
f 198 197 202
f 203 201 204
f 205 202 197
f 206 204 207
f 202 205 208
f 209 207 210
f 211 208 205
f 212 210 213
f 208 211 214
f 215 213 216
f 217 214 211
f 214 217 218
f 199 200 197
f 201 203 200
f 204 206 203
f 207 209 206
f 210 212 209
f 213 215 212
f 216 219 215
f 220 219 216
f 220 221 219
f 220 222 221
f 220 223 222
f 220 224 223
f 220 225 224
f 220 226 225
f 220 227 226
f 176 227 220
f 228 229 230
f 231 227 176
f 228 232 229
f 228 231 232
f 227 231 228
f 231 176 233
f 233 176 234
f 234 176 235
f 235 176 236
f 236 176 237
f 237 176 175
f 238 218 217
f 218 238 239
f 240 239 238
f 239 240 241
f 242 241 240
f 241 242 243
f 244 243 242
f 245 243 244
f 245 246 243
f 247 246 245
f 248 246 247
f 249 246 248
f 250 246 249
f 251 246 250
f 252 246 251
f 253 252 254
f 229 254 230
f 255 254 229
f 253 254 255
f 252 253 192
f 192 253 256
f 192 256 257
f 192 257 258
f 192 258 259
f 192 259 260
f 192 260 194
f 252 192 246
f 176 261 184
f 261 176 220
f 262 263 264
f 265 264 266
f 263 262 267
f 268 266 269
f 270 267 262
f 271 269 272
f 267 270 273
f 274 272 275
f 276 273 270
f 277 275 278
f 273 276 279
f 280 278 281
f 282 279 276
f 279 282 283
f 264 265 262
f 266 268 265
f 269 271 268
f 272 274 271
f 275 277 274
f 278 280 277
f 281 284 280
f 285 284 281
f 285 286 284
f 285 287 286
f 285 288 287
f 285 289 288
f 285 290 289
f 285 291 290
f 285 292 291
f 186 292 285
f 293 294 295
f 296 292 186
f 293 297 294
f 293 296 297
f 292 296 293
f 296 186 298
f 298 186 299
f 299 186 300
f 300 186 301
f 301 186 302
f 302 186 196
f 303 283 282
f 283 303 304
f 305 304 303
f 304 305 306
f 307 306 305
f 306 307 308
f 309 308 307
f 310 308 309
f 310 261 308
f 311 261 310
f 312 261 311
f 313 261 312
f 314 261 313
f 315 261 314
f 316 261 315
f 317 316 318
f 294 318 295
f 319 318 294
f 317 318 319
f 316 317 184
f 184 317 320
f 184 320 321
f 184 321 322
f 184 322 323
f 184 323 324
f 184 324 180
f 316 184 261
f 246 186 285
f 186 246 192
f 243 285 281
f 285 243 246
f 263 202 264
f 202 263 198
f 210 283 304
f 283 210 207
f 218 275 272
f 275 218 239
f 267 198 263
f 198 267 199
f 220 308 261
f 308 220 216
f 264 208 266
f 208 264 202
f 269 218 272
f 218 269 214
f 239 278 275
f 278 239 241
f 283 204 279
f 204 283 207
f 216 306 308
f 306 216 213
f 266 214 269
f 214 266 208
f 241 281 278
f 281 241 243
f 213 304 306
f 304 213 210
f 273 199 267
f 199 273 201
f 279 201 273
f 201 279 204
f 247 286 287
f 286 247 245
f 221 311 310
f 311 221 222
f 318 230 295
f 230 318 228
f 200 262 197
f 262 200 270
f 291 250 290
f 250 291 251
f 314 226 315
f 226 314 225
f 315 227 316
f 227 315 226
f 249 288 289
f 288 249 248
f 248 287 288
f 287 248 247
f 250 289 290
f 289 250 249
f 293 252 292
f 252 293 254
f 295 254 293
f 254 295 230
f 292 251 291
f 251 292 252
f 223 313 312
f 313 223 224
f 224 314 313
f 314 224 225
f 222 312 311
f 312 222 223
f 316 228 318
f 228 316 227
f 245 284 286
f 284 245 244
f 197 265 205
f 265 197 262
f 211 271 217
f 271 211 268
f 209 282 206
f 282 209 303
f 203 270 200
f 270 203 276
f 212 307 305
f 307 212 215
f 209 305 303
f 305 209 212
f 219 310 309
f 310 219 221
f 205 268 211
f 268 205 265
f 217 274 238
f 274 217 271
f 240 274 277
f 274 240 238
f 206 276 203
f 276 206 282
f 215 309 307
f 309 215 219
f 242 277 280
f 277 242 240
f 244 280 284
f 280 244 242
f 325 326 327
f 326 325 328
f 329 330 331
f 330 329 332
f 331 333 334
f 331 335 333
f 336 330 337
f 338 330 336
f 339 330 338
f 340 330 339
f 341 330 340
f 335 330 341
f 330 335 331
f 342 326 343
f 344 326 342
f 327 337 330
f 337 327 345
f 345 327 346
f 346 327 347
f 347 327 348
f 348 327 349
f 349 327 344
f 344 327 326
f 325 330 332
f 330 325 327
f 328 350 351
f 328 352 350
f 353 325 354
f 355 325 353
f 356 325 355
f 357 325 356
f 358 325 357
f 352 325 358
f 325 352 328
f 359 329 360
f 361 329 359
f 332 354 325
f 354 332 362
f 362 332 363
f 363 332 364
f 364 332 365
f 365 332 366
f 366 332 361
f 361 332 329
f 334 329 331
f 329 334 360
f 326 351 343
f 351 326 328
f 338 364 339
f 364 338 363
f 346 353 345
f 353 346 355
f 352 349 344
f 349 352 358
f 361 333 335
f 333 361 359
f 366 335 341
f 335 366 361
f 365 341 340
f 341 365 366
f 339 365 340
f 365 339 364
f 336 363 338
f 363 336 362
f 345 354 337
f 354 345 353
f 351 342 343
f 342 351 350
f 358 348 349
f 348 358 357
f 347 355 346
f 355 347 356
f 348 356 347
f 356 348 357
f 359 334 333
f 334 359 360
f 337 362 336
f 362 337 354
f 350 344 342
f 344 350 352
f 367 368 369
f 368 367 370
f 371 372 373
f 372 371 374
f 375 376 377
f 376 375 378
f 379 380 381
f 380 379 382
f 383 384 385
f 384 383 386
f 387 388 389
f 388 387 390
f 391 392 393
f 392 391 394
f 395 396 397
f 396 395 398
f 368 399 369
f 399 368 400
f 401 369 399
f 369 401 367
f 367 401 402
f 401 399 403
f 401 404 402
f 405 404 401
f 404 405 395
f 401 406 405
f 407 406 401
f 406 407 391
f 401 408 407
f 409 408 401
f 408 409 387
f 401 410 409
f 411 410 401
f 410 411 383
f 412 411 401
f 411 412 413
f 413 414 379
f 413 412 414
f 414 412 415
f 415 416 375
f 415 412 416
f 416 412 417
f 418 419 420
f 420 421 422
f 423 422 421
f 424 425 423
f 421 420 419
f 417 412 371
f 426 371 412
f 371 427 428
f 371 429 427
f 371 430 429
f 371 431 430
f 371 426 431
f 412 432 426
f 412 433 432
f 185 412 434
f 412 435 433
f 412 185 435
f 435 185 187
f 397 404 395
f 393 406 391
f 389 408 387
f 385 410 383
f 381 413 379
f 377 415 375
f 373 417 371
f 428 436 437
f 428 438 371
f 438 428 437
f 436 428 418
f 419 418 428
f 422 423 425
f 425 424 439
f 440 439 424
f 439 440 441
f 442 441 440
f 441 442 443
f 444 443 442
f 181 444 179
f 444 181 443
f 445 446 447
f 448 446 445
f 449 446 448
f 446 449 450
f 449 448 451
f 446 25 452
f 446 452 447
f 25 446 27
f 27 446 453
f 454 446 455
f 446 454 453
f 456 401 457
f 401 456 412
f 458 459 460
f 459 458 461
f 462 460 463
f 464 461 458
f 465 463 466
f 372 374 467
f 376 378 468
f 380 382 469
f 384 386 470
f 388 390 471
f 392 394 472
f 396 398 473
f 473 457 474
f 475 473 398
f 473 475 457
f 472 457 475
f 476 472 394
f 472 476 457
f 471 457 476
f 477 471 390
f 471 477 457
f 470 457 477
f 478 470 386
f 470 478 457
f 456 478 469
f 479 469 382
f 456 469 479
f 456 479 468
f 480 468 378
f 456 468 480
f 456 480 467
f 456 467 374
f 481 466 482
f 483 482 484
f 485 484 486
f 487 486 488
f 463 465 462
f 489 490 464
f 490 489 374
f 491 374 489
f 478 456 457
f 492 374 491
f 493 374 492
f 374 493 456
f 494 456 493
f 495 456 494
f 496 456 495
f 195 456 496
f 195 496 188
f 456 195 497
f 457 368 370
f 457 370 474
f 368 457 400
f 400 457 498
f 461 464 490
f 460 462 458
f 466 481 465
f 482 483 481
f 484 485 483
f 486 487 485
f 488 499 487
f 182 499 488
f 499 182 183
f 455 20 29
f 20 455 500
f 500 455 501
f 455 29 454
f 455 502 501
f 503 455 504
f 455 505 502
f 455 503 505
f 505 503 506
f 501 452 500
f 452 501 447
f 425 466 422
f 466 425 482
f 182 443 181
f 443 182 488
f 497 185 434
f 185 497 195
f 503 451 506
f 451 503 449
f 505 445 502
f 445 505 448
f 437 490 438
f 490 437 461
f 456 434 412
f 434 456 497
f 20 452 25
f 452 20 500
f 455 450 504
f 450 455 446
f 504 449 503
f 449 504 450
f 506 448 505
f 448 506 451
f 502 447 501
f 447 502 445
f 422 463 420
f 463 422 466
f 418 459 436
f 459 418 460
f 488 441 443
f 441 488 486
f 484 425 439
f 425 484 482
f 420 460 418
f 460 420 463
f 436 461 437
f 461 436 459
f 438 374 371
f 374 438 490
f 486 439 441
f 439 486 484
f 507 508 509
f 508 507 510
f 31 511 512
f 511 31 33
f 508 3 4
f 3 508 510
f 511 190 512
f 190 511 191
f 29 21 454
f 453 26 27
f 26 453 513
f 454 513 453
f 454 514 513
f 514 454 21
f 507 513 514
f 513 507 509
f 35 511 33
f 511 35 191
f 510 1 3
f 515 1 510
f 1 515 23
f 510 516 515
f 516 510 507
f 517 21 22
f 517 514 21
f 516 514 517
f 514 516 507
f 26 518 19
f 513 518 26
f 513 519 518
f 519 513 509
f 520 6 28
f 6 520 508
f 519 508 520
f 508 519 509
f 4 6 508
f 190 31 512
f 31 190 36
f 498 401 403
f 401 498 457
f 498 399 400
f 399 498 403
f 372 417 373
f 417 372 467
f 480 375 416
f 375 480 378
f 417 480 416
f 480 417 467
f 376 415 377
f 415 376 468
f 479 379 414
f 379 479 382
f 415 479 414
f 479 415 468
f 380 413 381
f 413 380 469
f 478 383 411
f 383 478 386
f 413 478 411
f 478 413 469
f 384 410 385
f 410 384 470
f 477 387 409
f 387 477 390
f 410 477 409
f 477 410 470
f 388 408 389
f 408 388 471
f 476 391 407
f 391 476 394
f 408 476 407
f 476 408 471
f 392 406 393
f 406 392 472
f 475 395 405
f 395 475 398
f 406 475 405
f 475 406 472
f 396 404 397
f 404 396 473
f 474 367 402
f 367 474 370
f 404 474 402
f 474 404 473
f 494 426 432
f 426 494 493
f 481 421 465
f 421 481 423
f 489 430 491
f 430 489 429
f 496 433 435
f 433 496 495
f 495 432 433
f 432 495 494
f 188 435 187
f 435 188 496
f 491 431 492
f 431 491 430
f 493 431 426
f 431 493 492
f 458 427 464
f 427 458 428
f 487 444 442
f 444 487 499
f 499 179 444
f 179 499 183
f 462 428 458
f 428 462 419
f 465 419 462
f 419 465 421
f 464 429 489
f 429 464 427
f 483 440 424
f 440 483 485
f 485 442 440
f 442 485 487
f 483 423 481
f 423 483 424
f 515 521 522
f 521 515 516
f 515 30 23
f 30 515 522
f 517 24 523
f 24 517 22
f 521 517 523
f 517 521 516
f 521 30 522
f 30 521 24
f 24 521 523
f 524 519 520
f 519 524 525
f 524 28 18
f 28 524 520
f 526 19 518
f 19 526 17
f 519 526 518
f 526 519 525
f 525 18 17
f 525 17 526
f 18 525 524
f 229 527 255
f 527 229 528
f 529 144 530
f 144 529 142
f 72 297 99
f 297 72 294
f 148 531 532
f 531 148 149
f 533 259 258
f 259 533 534
f 300 104 103
f 104 300 301
f 530 535 529
f 536 535 530
f 536 537 535
f 538 537 536
f 538 539 537
f 540 539 538
f 540 541 539
f 532 541 540
f 532 542 541
f 531 542 532
f 531 543 542
f 544 543 531
f 544 545 543
f 178 545 544
f 545 178 189
f 546 527 528
f 547 527 546
f 547 548 527
f 549 548 547
f 549 550 548
f 551 550 549
f 551 552 550
f 553 552 551
f 553 533 552
f 554 533 553
f 554 534 533
f 555 534 554
f 555 556 534
f 177 556 555
f 556 177 193
f 538 147 540
f 147 538 146
f 256 552 257
f 552 256 550
f 101 299 102
f 299 101 298
f 147 532 540
f 532 147 148
f 552 258 257
f 258 552 533
f 299 103 102
f 103 299 300
f 534 260 259
f 260 534 556
f 149 544 531
f 544 149 150
f 301 105 104
f 105 301 302
f 556 194 260
f 194 556 193
f 150 178 544
f 178 150 151
f 302 106 105
f 106 302 196
f 554 235 236
f 235 554 553
f 172 542 543
f 542 172 171
f 323 78 79
f 78 323 322
f 177 237 175
f 237 177 555
f 174 545 189
f 545 174 173
f 180 80 81
f 80 180 324
f 255 548 253
f 548 255 527
f 530 140 536
f 140 530 144
f 99 296 97
f 296 99 297
f 231 546 232
f 546 231 547
f 537 168 535
f 168 537 166
f 70 319 74
f 319 70 317
f 234 549 233
f 549 234 551
f 541 169 539
f 169 541 170
f 77 320 76
f 320 77 321
f 553 234 235
f 234 553 551
f 171 541 542
f 541 171 170
f 322 77 78
f 77 322 321
f 555 236 237
f 236 555 554
f 173 543 545
f 543 173 172
f 324 79 80
f 79 324 323
f 253 550 256
f 550 253 548
f 536 146 538
f 146 536 140
f 97 298 101
f 298 97 296
f 232 528 229
f 528 232 546
f 535 142 529
f 142 535 168
f 74 294 72
f 294 74 319
f 233 547 231
f 547 233 549
f 539 166 537
f 166 539 169
f 76 317 70
f 317 76 320

