# https://github.com/mikedh/trimesh
v -1.79075291 0.91682408 0.86746928
v -1.79075291 0.91682408 -0.86757722
v -1.79075291 1.13115336 -0.86757722
v -1.79075291 1.13115336 0.86746928
v -0.05570642 1.13115336 -0.86757722
v -0.05570642 1.13115336 0.86746928
v -0.05570642 0.91682408 -0.86757722
v -0.05570642 0.91682408 0.86746928
v -0.99291883 2.95119161 -0.38278482
v -1.05992989 2.93086605 -0.38278482
v -1.12168785 2.89785424 -0.38278482
v -1.17581926 2.85342684 -0.38278482
v -1.22024360 2.79929850 -0.38278482
v -1.25325388 2.73754105 -0.38278482
v -0.99291883 2.95119161 0.38267687
v -1.05992989 2.93086605 0.38267687
v -1.12168785 2.89785424 0.38267687
v -1.17581926 2.85342684 0.38267687
v -1.22024360 2.79929850 0.38267687
v -1.25325388 2.73754105 0.38267687
v 3.82263280 2.62635519 0.15303837
v 3.82263280 0.91682408 -0.15314631
v 3.82263280 2.62635519 -0.15314631
v 3.82263280 0.91682408 0.15303837
v 3.39280055 4.24777655 0.15303837
v 3.39280055 4.24777655 -0.15314631
v 3.58305860 3.97606316 -0.15314631
v 3.58305860 3.97606316 0.15303837
v -1.65050502 0.00000000 0.45922304
v -2.17736720 0.75243404 -0.45933098
v -1.65050502 0.00000000 -0.45933098
v -2.17736720 0.75243404 0.45922304
f 32 29 1
f 30 2 31
f 1 29 8
f 8 29 24
f 4 6 25
f 4 32 1
f 20 32 4
f 28 6 21
f 25 6 28
f 26 27 5
f 7 31 2
f 7 22 31
f 20 4 19
f 15 4 25
f 5 27 23
f 18 4 17
f 18 19 4
f 17 4 16
f 4 15 16
f 3 9 26
f 3 26 5
f 3 2 30
f 14 3 30
f 11 3 12
f 12 3 13
f 3 14 13
f 9 3 10
f 3 11 10
f 29 32 31
f 31 32 30
f 21 6 8
f 8 24 21
f 4 8 6
f 1 8 4
f 29 31 22
f 24 29 22
f 26 28 27
f 25 28 26
f 27 28 23
f 23 28 21
f 21 24 23
f 24 22 23
f 23 7 5
f 22 7 23
f 25 26 9
f 9 15 25
f 5 7 3
f 3 7 2
f 30 32 14
f 14 32 20
f 11 18 17
f 11 12 18
f 18 12 13
f 19 18 13
f 13 14 20
f 20 19 13
f 15 9 10
f 10 16 15
f 10 11 17
f 17 16 10

