# https://github.com/mikedh/trimesh
v -1.74430937 0.10126582 1.62175270
v -0.08354988 0.10126582 1.62175270
v -1.74430937 2.37974684 1.62175270
v -0.08354988 2.37974684 1.62175270
v 1.31898177 2.27848101 1.52048688
v -1.89620811 0.00000000 -1.36558907
v -1.89620811 2.37974684 -1.36558907
v -1.89620811 0.00000000 1.46985397
v -1.89620811 0.10126582 1.46985397
v -1.89620811 2.37974684 1.31795523
v 1.44556404 2.37974684 -1.36558907
v 1.44556404 2.37974684 1.31795523
v 1.44556404 0.00000000 -1.36558907
v 1.44556404 0.00000000 1.46985397
v 3.87594379 2.27848101 1.31795523
v 3.87594379 2.27848101 1.16605650
v 3.87594379 0.00000000 1.16605650
v 3.87594379 0.00000000 1.31795523
v 4.10379189 0.73417722 1.24200587
v 4.09948809 0.43037975 1.20924384
v 4.09948809 0.73417722 1.20924384
v 4.10379189 0.43037975 1.24200587
v 3.97720961 0.73417722 1.36858815
v 3.97720961 0.43037975 1.36858815
v 4.08682987 0.73417722 1.17871473
v 4.06672860 0.43037975 1.15249853
v 4.06672860 0.73417722 1.15249853
v 4.08682987 0.43037975 1.17871473
v 4.09948809 0.43037975 1.27476774
v 4.08682987 0.43037975 1.30529701
v 4.06672860 0.43037975 1.33151306
v 4.04050075 0.43037975 1.35162931
v 4.00996911 0.43037975 1.36427493
v 4.09948809 0.73417722 1.27476774
v 4.08682987 0.73417722 1.30529701
v 4.06672860 0.73417722 1.33151306
v 4.04050075 0.73417722 1.35162931
v 4.00996911 0.73417722 1.36427493
f 16 15 19
f 17 13 26
f 11 16 27
f 3 10 9
f 5 4 23
f 5 23 15
f 15 4 5
f 12 4 15
f 19 15 34
f 17 22 18
f 18 2 14
f 20 22 17
f 29 18 22
f 32 18 31
f 15 37 36
f 17 26 28
f 28 20 17
f 21 16 19
f 15 23 38
f 38 37 15
f 2 18 24
f 35 34 15
f 15 36 35
f 25 27 16
f 16 21 25
f 18 32 33
f 33 24 18
f 31 18 30
f 18 29 30
f 6 7 13
f 13 7 11
f 27 13 11
f 27 26 13
f 3 1 2
f 2 4 3
f 8 14 2
f 2 1 8
f 9 7 6
f 6 8 9
f 9 10 7
f 9 1 3
f 8 1 9
f 11 7 12
f 7 10 12
f 12 10 3
f 3 4 12
f 12 16 11
f 15 16 12
f 18 8 6
f 6 13 18
f 18 13 17
f 18 14 8
f 19 34 29
f 29 22 19
f 36 32 31
f 37 32 36
f 19 22 21
f 22 20 21
f 23 4 24
f 4 2 24
f 26 27 25
f 25 28 26
f 25 21 20
f 20 28 25
f 33 32 37
f 37 38 33
f 23 24 33
f 33 38 23
f 30 36 31
f 30 35 36
f 30 29 34
f 34 35 30

