# https://github.com/mikedh/trimesh

o OpenSCAD_Model
v -1.64304355 2.17721519 1.54580334
v -1.64476861 0.30379747 1.53269853
v -1.64476861 2.17721519 1.53269853
v -1.64304355 0.30379747 1.54580334
v -1.69367646 0.30379747 1.49517042
v -1.70678127 2.17721519 1.49689549
v -1.69367646 2.17721519 1.49517042
v -1.70678127 0.30379747 1.49689549
v -1.65787342 0.30379747 1.51000030
v -1.66836001 2.17721519 1.50195422
v -1.65787342 2.17721519 1.51000030
v -1.66836001 0.30379747 1.50195422
v -1.64982735 0.30379747 1.52048688
v -1.64982735 2.17721519 1.52048688
v -1.73752588 0.30379747 1.52048688
v -1.72947940 2.17721519 1.51000030
v -1.72947940 0.30379747 1.51000030
v -1.73752588 2.17721519 1.52048688
v -1.74258412 0.30379747 1.53269853
v -1.74258412 2.17721519 1.53269853
v -1.71899292 0.30379747 1.50195422
v -1.71899292 2.17721519 1.50195422
v -1.65787342 2.17721519 1.58160637
v -1.64982735 0.30379747 1.57111979
v -1.64982735 2.17721519 1.57111979
v -1.65787342 0.30379747 1.58160637
v -1.71899292 0.30379747 1.58965296
v -1.70678127 2.17721519 1.59471118
v -1.71899292 2.17721519 1.58965296
v -1.70678127 0.30379747 1.59471118
v -1.68057165 0.30379747 1.49689549
v -1.68057165 2.17721519 1.49689549
v -1.74430937 0.30379747 1.54580334
v -1.74430937 2.17721519 1.54580334
v -1.68057165 0.30379747 1.59471118
v -1.66836001 2.17721519 1.58965296
v -1.68057165 2.17721519 1.59471118
v -1.66836001 0.30379747 1.58965296
v -1.69367646 2.17721519 1.59643625
v -1.69367646 0.30379747 1.59643625
v -1.72947940 0.30379747 1.58160637
v -1.72947940 2.17721519 1.58160637
v -1.73752588 0.30379747 1.57111979
v -1.74258412 2.17721519 1.55890815
v -1.74258412 0.30379747 1.55890815
v -1.73752588 2.17721519 1.57111979
v -1.64476861 0.30379747 1.55890815
v -1.64476861 2.17721519 1.55890815
v -1.12321064 2.17721519 1.54580334
v -1.12493722 0.30379747 1.53269853
v -1.12493722 2.17721519 1.53269853
v -1.12321064 0.30379747 1.54580334
v -1.17384355 0.30379747 1.49517042
v -1.18695241 2.17721519 1.49689549
v -1.17384355 2.17721519 1.49517042
v -1.18695241 0.30379747 1.49689549
v -1.17384355 0.30379747 1.59643625
v -1.16073975 2.17721519 1.59471118
v -1.17384355 2.17721519 1.59643625
v -1.16073975 0.30379747 1.59471118
v -1.20964608 0.30379747 1.58160637
v -1.19916001 2.17721519 1.58965296
v -1.20964608 2.17721519 1.58160637
v -1.19916001 0.30379747 1.58965296
v -1.13804102 0.30379747 1.51000030
v -1.14852710 2.17721519 1.50195422
v -1.13804102 2.17721519 1.51000030
v -1.14852710 0.30379747 1.50195422
v -1.12999545 0.30379747 1.52048688
v -1.12999545 2.17721519 1.52048688
v -1.21769672 0.30379747 1.52048688
v -1.20964608 2.17721519 1.51000030
v -1.20964608 0.30379747 1.51000030
v -1.21769672 2.17721519 1.52048688
v -1.22275494 0.30379747 1.53269853
v -1.22275494 2.17721519 1.53269853
v -1.19916001 2.17721519 1.50195422
v -1.19916001 0.30379747 1.50195422
v -1.13804102 2.17721519 1.58160637
v -1.12999545 0.30379747 1.57111979
v -1.12999545 2.17721519 1.57111979
v -1.13804102 0.30379747 1.58160637
v -1.18695241 2.17721519 1.59471118
v -1.18695241 0.30379747 1.59471118
v -1.21769672 0.30379747 1.57111979
v -1.22275494 2.17721519 1.55890815
v -1.22275494 0.30379747 1.55890815
v -1.21769672 2.17721519 1.57111979
v -1.16073975 0.30379747 1.49689549
v -1.16073975 2.17721519 1.49689549
v -1.22447646 0.30379747 1.54580334
v -1.22447646 2.17721519 1.54580334
v -1.14852710 2.17721519 1.58965296
v -1.14852710 0.30379747 1.58965296
v -1.12493722 0.30379747 1.55890815
v -1.12493722 2.17721519 1.55890815
v -0.60338279 2.17721519 1.54580334
v -0.60510431 0.30379747 1.53269853
v -0.60510431 2.17721519 1.53269853
v -0.60338279 0.30379747 1.54580334
v -0.65401570 0.30379747 1.49517042
v -0.66711950 2.17721519 1.49689549
v -0.65401570 2.17721519 1.49517042
v -0.66711950 0.30379747 1.49689549
v -0.61821317 0.30379747 1.51000030
v -0.62869925 2.17721519 1.50195422
v -0.61821317 2.17721519 1.51000030
v -0.62869925 0.30379747 1.50195422
v -0.69786380 0.30379747 1.52048688
v -0.68981823 2.17721519 1.51000030
v -0.68981823 0.30379747 1.51000030
v -0.69786380 2.17721519 1.52048688
v -0.70292203 0.30379747 1.53269853
v -0.70292203 2.17721519 1.53269853
v -0.67933216 2.17721519 1.50195422
v -0.67933216 0.30379747 1.50195422
v -0.61016254 2.17721519 1.57111979
v -0.60510431 0.30379747 1.55890815
v -0.60510431 2.17721519 1.55890815
v -0.61016254 0.30379747 1.57111979
v -0.67933216 0.30379747 1.58965296
v -0.66711950 2.17721519 1.59471118
v -0.67933216 2.17721519 1.58965296
v -0.66711950 0.30379747 1.59471118
v -0.61016254 2.17721519 1.52048688
v -0.61016254 0.30379747 1.52048688
v -0.64090684 0.30379747 1.49689549
v -0.64090684 2.17721519 1.49689549
v -0.70464861 0.30379747 1.54580334
v -0.70464861 2.17721519 1.54580334
v -0.64090684 0.30379747 1.59471118
v -0.62869925 2.17721519 1.58965296
v -0.64090684 2.17721519 1.59471118
v -0.62869925 0.30379747 1.58965296
v -0.65401570 2.17721519 1.59643625
v -0.65401570 0.30379747 1.59643625
v -0.68981823 0.30379747 1.58160637
v -0.68981823 2.17721519 1.58160637
v -0.69786380 0.30379747 1.57111979
v -0.70292203 2.17721519 1.55890815
v -0.70292203 0.30379747 1.55890815
v -0.69786380 2.17721519 1.57111979
v -0.61821317 2.17721519 1.58160637
v -0.61821317 0.30379747 1.58160637
v -0.08354988 2.17721519 1.54580334
v -0.08527646 0.30379747 1.53269853
v -0.08527646 2.17721519 1.53269853
v -0.08354988 0.30379747 1.54580334
v -0.18481570 0.30379747 1.54580334
v -0.18308912 2.17721519 1.53269853
v -0.18308912 0.30379747 1.53269853
v -0.18481570 2.17721519 1.54580334
v -0.12107899 0.30379747 1.49689549
v -0.13418279 2.17721519 1.49517042
v -0.12107899 2.17721519 1.49689549
v -0.13418279 0.30379747 1.49517042
v -0.13418279 0.30379747 1.59643625
v -0.12107899 2.17721519 1.59471118
v -0.13418279 2.17721519 1.59643625
v -0.12107899 0.30379747 1.59471118
v -0.09033469 2.17721519 1.52048688
v -0.09838026 0.30379747 1.51000030
v -0.09838026 2.17721519 1.51000030
v -0.09033469 0.30379747 1.52048688
v -0.15949925 0.30379747 1.50195422
v -0.16998532 2.17721519 1.51000030
v -0.15949925 2.17721519 1.50195422
v -0.16998532 0.30379747 1.51000030
v -0.17803089 0.30379747 1.52048688
v -0.17803089 2.17721519 1.52048688
v -0.14728659 0.30379747 1.49689549
v -0.14728659 2.17721519 1.49689549
v -0.10886634 0.30379747 1.50195422
v -0.10886634 2.17721519 1.50195422
v -0.08527646 2.17721519 1.55890815
v -0.08527646 0.30379747 1.55890815
v -0.09838026 2.17721519 1.58160637
v -0.09033469 0.30379747 1.57111979
v -0.09033469 2.17721519 1.57111979
v -0.09838026 0.30379747 1.58160637
v -0.17803089 0.30379747 1.57111979
v -0.18308912 2.17721519 1.55890815
v -0.18308912 0.30379747 1.55890815
v -0.17803089 2.17721519 1.57111979
v -0.16998532 0.30379747 1.58160637
v -0.16998532 2.17721519 1.58160637
v -0.10886634 2.17721519 1.58965296
v -0.10886634 0.30379747 1.58965296
v -0.15949925 0.30379747 1.58965296
v -0.14728659 2.17721519 1.59471118
v -0.15949925 2.17721519 1.58965296
v -0.14728659 0.30379747 1.59471118
v -1.74430937 0.10126582 1.46985397
v -1.74430937 0.30379747 1.46985397
v -1.74430937 0.10126582 1.62175270
v -1.74430937 0.30379747 1.62175270
v -0.08354988 0.30379747 1.46985397
v -0.08354988 0.30379747 1.62175270
v -0.08354988 0.10126582 1.46985397
v -0.08354988 0.10126582 1.62175270
v -1.74430937 2.37974684 1.46985397
v -1.74430937 2.17721519 1.46985397
v -1.74430937 2.37974684 1.62175270
v -1.74430937 2.17721519 1.62175270
v -0.08354988 2.37974684 1.62175270
v -0.08354988 2.37974684 1.46985397
v -0.08354988 2.17721519 1.46985397
v -0.08354988 2.17721519 1.62175270
v 1.44556404 0.50632911 1.39390460
v 1.44125012 0.20253165 1.36114273
v 1.44125012 0.50632911 1.36114273
v 1.44556404 0.20253165 1.39390460
v 1.19239949 0.20253165 1.39390460
v 1.19671341 0.50632911 1.36114273
v 1.19671341 0.20253165 1.36114273
v 1.19239949 0.50632911 1.39390460
v 1.28622227 0.20253165 1.51617346
v 1.31898177 0.50632911 1.52048688
v 1.28622227 0.50632911 1.51617346
v 1.31898177 0.20253165 1.52048688
v 1.42860708 0.50632911 1.33061346
v 1.41889063 0.20253165 1.31795523
v 1.41889063 0.50632911 1.31795523
v 1.42860708 0.20253165 1.33061346
v 1.25569063 0.20253165 1.28428116
v 1.22947290 0.50632911 1.30439741
v 1.25569063 0.50632911 1.28428116
v 1.22947290 0.20253165 1.30439741
v 1.20935645 0.20253165 1.33061346
v 1.20935645 0.50632911 1.33061346
v 1.28622227 0.20253165 1.27163554
v 1.28622227 0.50632911 1.27163554
v 1.22947290 0.20253165 1.48341194
v 1.25569063 0.50632911 1.50352789
v 1.22947290 0.50632911 1.48341194
v 1.25569063 0.20253165 1.50352789
v 1.44125012 0.20253165 1.42666663
v 1.35321468 0.20253165 1.40307777
v 1.35442480 0.20253165 1.39390460
v 1.33670328 0.20253165 1.42459929
v 1.38227290 0.20253165 1.50352789
v 1.35174126 0.20253165 1.51617346
v 1.40849063 0.20253165 1.48341194
v 1.34967544 0.20253165 1.41162612
v 1.34404506 0.20253165 1.41896637
v 1.32815645 0.20253165 1.42814004
v 1.31898177 0.20253165 1.42934764
v 1.30980708 0.20253165 1.42814004
v 1.30126025 0.20253165 1.42459929
v 1.29391847 0.20253165 1.41896637
v 1.28828809 0.20253165 1.41162612
v 1.20935645 0.20253165 1.45719574
v 1.42860708 0.20253165 1.45719574
v 1.35321468 0.20253165 1.38473144
v 1.34967544 0.20253165 1.37618308
v 1.34404506 0.20253165 1.36884283
v 1.33670328 0.20253165 1.36321007
v 1.32815645 0.20253165 1.35966931
v 1.29366531 0.20253165 1.31795523
v 1.31898177 0.20253165 1.35846156
v 1.30980708 0.20253165 1.35966931
v 1.30126025 0.20253165 1.36321007
v 1.29391847 0.20253165 1.36884283
v 1.28828809 0.20253165 1.37618308
v 1.29366531 0.20253165 1.27065534
v 1.28474885 0.20253165 1.38473144
v 1.28353873 0.20253165 1.39390460
v 1.28474885 0.20253165 1.40307777
v 1.19671341 0.20253165 1.42666663
v 1.29366531 0.50632911 1.31795523
v 1.29366531 0.50632911 1.27065534
v 1.28828809 0.50632911 1.37618308
v 1.35442480 0.50632911 1.39390460
v 1.35321468 0.50632911 1.38473144
v 1.44125012 0.50632911 1.42666663
v 1.34967544 0.50632911 1.37618308
v 1.35321468 0.50632911 1.40307777
v 1.42860708 0.50632911 1.45719574
v 1.34967544 0.50632911 1.41162612
v 1.34404506 0.50632911 1.36884283
v 1.33670328 0.50632911 1.36321007
v 1.32815645 0.50632911 1.35966931
v 1.31898177 0.50632911 1.35846156
v 1.30980708 0.50632911 1.35966931
v 1.30126025 0.50632911 1.36321007
v 1.29391847 0.50632911 1.36884283
v 1.40849063 0.50632911 1.48341194
v 1.34404506 0.50632911 1.41896637
v 1.38227290 0.50632911 1.50352789
v 1.33670328 0.50632911 1.42459929
v 1.35174126 0.50632911 1.51617346
v 1.32815645 0.50632911 1.42814004
v 1.31898177 0.50632911 1.42934764
v 1.30980708 0.50632911 1.42814004
v 1.30126025 0.50632911 1.42459929
v 1.29391847 0.50632911 1.41896637
v 1.28828809 0.50632911 1.41162612
v 1.20935645 0.50632911 1.45719574
v 1.28474885 0.50632911 1.40307777
v 1.19671341 0.50632911 1.42666663
v 1.28353873 0.50632911 1.39390460
v 1.28474885 0.50632911 1.38473144
v 1.44556404 2.27848101 1.39390460
v 1.44125012 1.97468354 1.36114273
v 1.44125012 2.27848101 1.36114273
v 1.44556404 1.97468354 1.39390460
v 1.19239949 1.97468354 1.39390460
v 1.19671341 2.27848101 1.36114273
v 1.19671341 1.97468354 1.36114273
v 1.19239949 2.27848101 1.39390460
v 1.28622227 1.97468354 1.51617346
v 1.31898177 2.27848101 1.52048688
v 1.28622227 2.27848101 1.51617346
v 1.31898177 1.97468354 1.52048688
v 1.42860708 2.27848101 1.33061346
v 1.41889063 1.97468354 1.31795523
v 1.41889063 2.27848101 1.31795523
v 1.42860708 1.97468354 1.33061346
v 1.25569063 1.97468354 1.28428116
v 1.22947290 2.27848101 1.30439741
v 1.25569063 2.27848101 1.28428116
v 1.22947290 1.97468354 1.30439741
v 1.20935645 1.97468354 1.33061346
v 1.20935645 2.27848101 1.33061346
v 1.28622227 1.97468354 1.27163554
v 1.28622227 2.27848101 1.27163554
v 1.22947290 1.97468354 1.48341194
v 1.25569063 2.27848101 1.50352789
v 1.22947290 2.27848101 1.48341194
v 1.25569063 1.97468354 1.50352789
v 1.44125012 1.97468354 1.42666663
v 1.35321468 1.97468354 1.40307777
v 1.35442480 1.97468354 1.39390460
v 1.33670328 1.97468354 1.42459929
v 1.38227290 1.97468354 1.50352789
v 1.35174126 1.97468354 1.51617346
v 1.40849063 1.97468354 1.48341194
v 1.34967544 1.97468354 1.41162612
v 1.34404506 1.97468354 1.41896637
v 1.32815645 1.97468354 1.42814004
v 1.31898177 1.97468354 1.42934764
v 1.30980708 1.97468354 1.42814004
v 1.30126025 1.97468354 1.42459929
v 1.29391847 1.97468354 1.41896637
v 1.28828809 1.97468354 1.41162612
v 1.20935645 1.97468354 1.45719574
v 1.42860708 1.97468354 1.45719574
v 1.35321468 1.97468354 1.38473144
v 1.34967544 1.97468354 1.37618308
v 1.34404506 1.97468354 1.36884283
v 1.33670328 1.97468354 1.36321007
v 1.32815645 1.97468354 1.35966931
v 1.29366531 1.97468354 1.31795523
v 1.31898177 1.97468354 1.35846156
v 1.30980708 1.97468354 1.35966931
v 1.30126025 1.97468354 1.36321007
v 1.29391847 1.97468354 1.36884283
v 1.28828809 1.97468354 1.37618308
v 1.29366531 1.97468354 1.27065534
v 1.28474885 1.97468354 1.38473144
v 1.28353873 1.97468354 1.39390460
v 1.28474885 1.97468354 1.40307777
v 1.19671341 1.97468354 1.42666663
v 1.29366531 2.27848101 1.31795523
v 1.29366531 2.27848101 1.27065534
v 1.28828809 2.27848101 1.37618308
v 1.35442480 2.27848101 1.39390460
v 1.35321468 2.27848101 1.38473144
v 1.44125012 2.27848101 1.42666663
v 1.34967544 2.27848101 1.37618308
v 1.35321468 2.27848101 1.40307777
v 1.42860708 2.27848101 1.45719574
v 1.34967544 2.27848101 1.41162612
v 1.34404506 2.27848101 1.36884283
v 1.33670328 2.27848101 1.36321007
v 1.32815645 2.27848101 1.35966931
v 1.31898177 2.27848101 1.35846156
v 1.30980708 2.27848101 1.35966931
v 1.30126025 2.27848101 1.36321007
v 1.29391847 2.27848101 1.36884283
v 1.40849063 2.27848101 1.48341194
v 1.34404506 2.27848101 1.41896637
v 1.38227290 2.27848101 1.50352789
v 1.33670328 2.27848101 1.42459929
v 1.35174126 2.27848101 1.51617346
v 1.32815645 2.27848101 1.42814004
v 1.31898177 2.27848101 1.42934764
v 1.30980708 2.27848101 1.42814004
v 1.30126025 2.27848101 1.42459929
v 1.29391847 2.27848101 1.41896637
v 1.28828809 2.27848101 1.41162612
v 1.20935645 2.27848101 1.45719574
v 1.28474885 2.27848101 1.40307777
v 1.19671341 2.27848101 1.42666663
v 1.28353873 2.27848101 1.39390460
v 1.28474885 2.27848101 1.38473144
v -1.89620811 0.00000000 -1.36558907
v -1.89620811 0.10126582 1.31795523
v -1.89620811 2.37974684 -1.36558907
v -1.89620811 0.00000000 1.46985397
v -1.89620811 0.10126582 1.46985397
v -1.89620811 2.37974684 1.31795523
v 1.29366531 0.10126582 -1.21369034
v 0.06834885 0.10126582 1.31795523
v 1.29366531 0.10126582 1.31795523
v -0.08354988 0.10126582 1.31795523
v -1.74430937 0.10126582 -1.21369034
v -1.74430937 0.10126582 1.31795523
v 1.44556404 0.10126582 1.46985397
v 1.44556404 0.10126582 1.31795523
v 0.06834885 0.10126582 1.46985397
v 1.44556404 2.37974684 -1.36558907
v 1.44556404 2.37974684 1.31795523
v 1.44556404 0.00000000 -1.36558907
v 1.44556404 0.00000000 1.46985397
v 0.06834885 2.37974684 1.46985397
v 1.29366531 2.37974684 -1.21369034
v -1.74430937 2.37974684 -1.21369034
v -1.74430937 2.37974684 1.31795523
v 1.29366531 2.37974684 1.31795523
v -0.08354988 2.37974684 1.31795523
v 0.06834885 2.37974684 1.31795523
v 2.66075392 2.07594937 1.24200587
v 2.65902733 0.20253165 1.22890106
v 2.65902733 2.07594937 1.22890106
v 2.66075392 0.20253165 1.24200587
v 2.61012101 0.20253165 1.19137296
v 2.59701721 2.07594937 1.19309802
v 2.61012101 2.07594937 1.19137296
v 2.59701721 0.20253165 1.19309802
v 2.61012101 0.20253165 1.29263878
v 2.62322480 2.07594937 1.29091351
v 2.61012101 2.07594937 1.29263878
v 2.62322480 0.20253165 1.29091351
v 2.64592354 0.20253165 1.20620283
v 2.63543746 2.07594937 1.19815675
v 2.64592354 2.07594937 1.20620283
v 2.63543746 0.20253165 1.19815675
v 2.65396911 0.20253165 1.21668941
v 2.65396911 2.07594937 1.21668941
v 2.56627290 0.20253165 1.21668941
v 2.57431847 2.07594937 1.20620283
v 2.57431847 0.20253165 1.20620283
v 2.56627290 2.07594937 1.21668941
v 2.56121468 0.20253165 1.22890106
v 2.56121468 2.07594937 1.22890106
v 2.58480455 0.20253165 1.19815675
v 2.58480455 2.07594937 1.19815675
v 2.64592354 2.07594937 1.27780880
v 2.65396911 0.20253165 1.26732232
v 2.65396911 2.07594937 1.26732232
v 2.64592354 0.20253165 1.27780880
v 2.58480455 0.20253165 1.28585529
v 2.59701721 2.07594937 1.29091351
v 2.58480455 2.07594937 1.28585529
v 2.59701721 0.20253165 1.29091351
v 2.62322480 0.20253165 1.19309802
v 2.62322480 2.07594937 1.19309802
v 2.55948809 0.20253165 1.24200587
v 2.55948809 2.07594937 1.24200587
v 2.63543746 2.07594937 1.28585529
v 2.63543746 0.20253165 1.28585529
v 2.57431847 0.20253165 1.27780880
v 2.57431847 2.07594937 1.27780880
v 2.56627290 0.20253165 1.26732232
v 2.56121468 2.07594937 1.25511068
v 2.56121468 0.20253165 1.25511068
v 2.56627290 2.07594937 1.26732232
v 2.65902733 0.20253165 1.25511068
v 2.65902733 2.07594937 1.25511068
v 3.06581721 2.07594937 1.24200587
v 3.06409063 0.20253165 1.22890106
v 3.06409063 2.07594937 1.22890106
v 3.06581721 0.20253165 1.24200587
v 3.01518430 0.20253165 1.19137296
v 3.00208050 2.07594937 1.19309802
v 3.01518430 2.07594937 1.19137296
v 3.00208050 0.20253165 1.19309802
v 3.01518430 0.20253165 1.29263878
v 3.02828809 2.07594937 1.29091351
v 3.01518430 2.07594937 1.29263878
v 3.02828809 0.20253165 1.29091351
v 3.05098683 0.20253165 1.20620283
v 3.04050075 2.07594937 1.19815675
v 3.05098683 2.07594937 1.20620283
v 3.04050075 0.20253165 1.19815675
v 3.05903240 0.20253165 1.21668941
v 3.05903240 2.07594937 1.21668941
v 2.97133620 0.20253165 1.21668941
v 2.97938177 2.07594937 1.20620283
v 2.97938177 0.20253165 1.20620283
v 2.97133620 2.07594937 1.21668941
v 2.96627797 0.20253165 1.22890106
v 2.96627797 2.07594937 1.22890106
v 2.98986784 0.20253165 1.19815675
v 2.98986784 2.07594937 1.19815675
v 3.05098683 2.07594937 1.27780880
v 3.05903240 0.20253165 1.26732232
v 3.05903240 2.07594937 1.26732232
v 3.05098683 0.20253165 1.27780880
v 2.98986784 0.20253165 1.28585529
v 3.00208050 2.07594937 1.29091351
v 2.98986784 2.07594937 1.28585529
v 3.00208050 0.20253165 1.29091351
v 3.02828809 0.20253165 1.19309802
v 3.02828809 2.07594937 1.19309802
v 2.96455139 0.20253165 1.24200587
v 2.96455139 2.07594937 1.24200587
v 3.04050075 2.07594937 1.28585529
v 3.04050075 0.20253165 1.28585529
v 2.97938177 0.20253165 1.27780880
v 2.97938177 2.07594937 1.27780880
v 2.97133620 0.20253165 1.26732232
v 2.96627797 2.07594937 1.25511068
v 2.96627797 0.20253165 1.25511068
v 2.97133620 2.07594937 1.26732232
v 3.06409063 0.20253165 1.25511068
v 3.06409063 2.07594937 1.25511068
v 3.47088050 2.07594937 1.24200587
v 3.46915898 0.20253165 1.22890106
v 3.46915898 2.07594937 1.22890106
v 3.47088050 0.20253165 1.24200587
v 3.42024759 0.20253165 1.19137296
v 3.40713366 2.07594937 1.19309802
v 3.42024759 2.07594937 1.19137296
v 3.40713366 0.20253165 1.19309802
v 3.45604506 0.20253165 1.20620283
v 3.44556404 2.07594937 1.19815675
v 3.45604506 2.07594937 1.20620283
v 3.44556404 0.20253165 1.19815675
v 3.46409569 0.20253165 1.21668941
v 3.46409569 2.07594937 1.21668941
v 3.37639949 0.20253165 1.21668941
v 3.38445012 2.07594937 1.20620283
v 3.38445012 0.20253165 1.20620283
v 3.37639949 2.07594937 1.21668941
v 3.37133620 0.20253165 1.22890106
v 3.37133620 2.07594937 1.22890106
v 3.39493113 0.20253165 1.19815675
v 3.39493113 2.07594937 1.19815675
v 3.45604506 2.07594937 1.27780880
v 3.46409569 0.20253165 1.26732232
v 3.46409569 2.07594937 1.26732232
v 3.45604506 0.20253165 1.27780880
v 3.39493113 0.20253165 1.28585529
v 3.40713366 2.07594937 1.29091351
v 3.39493113 2.07594937 1.28585529
v 3.40713366 0.20253165 1.29091351
v 3.43336151 0.20253165 1.19309802
v 3.43336151 2.07594937 1.19309802
v 3.36961468 0.20253165 1.24200587
v 3.36961468 2.07594937 1.24200587
v 3.46915898 2.07594937 1.25511068
v 3.46915898 0.20253165 1.25511068
v 3.43336151 0.20253165 1.29091351
v 3.44556404 2.07594937 1.28585529
v 3.43336151 2.07594937 1.29091351
v 3.44556404 0.20253165 1.28585529
v 3.42024759 2.07594937 1.29263878
v 3.42024759 0.20253165 1.29263878
v 3.38445012 0.20253165 1.27780880
v 3.38445012 2.07594937 1.27780880
v 3.37639949 0.20253165 1.26732232
v 3.37133620 2.07594937 1.25511068
v 3.37133620 0.20253165 1.25511068
v 3.37639949 2.07594937 1.26732232
v 2.55948809 0.00000000 1.16605650
v 2.55948809 0.20253165 1.16605650
v 2.55948809 0.00000000 1.31795523
v 2.55948809 0.20253165 1.31795523
v 3.72404506 0.20253165 1.16605650
v 3.72404506 0.20253165 1.31795523
v 3.87594379 2.27848101 1.31795523
v 3.87594379 0.73417722 1.16605650
v 3.87594379 2.27848101 1.16605650
v 3.87594379 0.73417722 1.31795523
v 3.87594379 0.43037975 1.31795523
v 3.87594379 0.00000000 1.16605650
v 3.87594379 0.43037975 1.16605650
v 3.87594379 0.00000000 1.31795523
v 3.87731088 0.73417722 1.16605650
v 3.87731088 0.43037975 1.16605650
v 3.72404506 2.07594937 1.16605650
v 2.55948809 2.27848101 1.16605650
v 2.55948809 2.07594937 1.16605650
v 3.72404506 2.07594937 1.31795523
v 2.55948809 2.27848101 1.31795523
v 2.55948809 2.07594937 1.31795523
v 3.87731088 0.73417722 1.31795523
v 3.87731088 0.43037975 1.31795523
v 4.10379189 0.73417722 1.24200587
v 4.09948809 0.43037975 1.20924384
v 4.09948809 0.73417722 1.20924384
v 4.10379189 0.43037975 1.24200587
v 4.00996911 0.43037975 1.11973701
v 3.97720961 0.73417722 1.11542359
v 4.00996911 0.73417722 1.11973701
v 3.97720961 0.43037975 1.11542359
v 3.94445012 0.43037975 1.36427493
v 3.97720961 0.73417722 1.36858815
v 3.94445012 0.73417722 1.36427493
v 3.97720961 0.43037975 1.36858815
v 4.08682987 0.73417722 1.17871473
v 4.06672860 0.43037975 1.15249853
v 4.06672860 0.73417722 1.15249853
v 4.08682987 0.43037975 1.17871473
v 4.04050075 0.73417722 1.13238258
v 4.04050075 0.43037975 1.13238258
v 3.91391847 0.43037975 1.13238258
v 3.88769063 0.73417722 1.15249853
v 3.91391847 0.73417722 1.13238258
v 3.88769063 0.43037975 1.15249853
v 3.94445012 0.43037975 1.11973701
v 3.94445012 0.73417722 1.11973701
v 3.88769063 0.43037975 1.33151306
v 3.91391847 0.73417722 1.35162931
v 3.88769063 0.73417722 1.33151306
v 3.91391847 0.43037975 1.35162931
v 4.01265265 0.43037975 1.24200587
v 4.09948809 0.43037975 1.27476774
v 4.01143746 0.43037975 1.25117903
v 4.08682987 0.43037975 1.30529701
v 4.00789316 0.43037975 1.25972739
v 4.06672860 0.43037975 1.33151306
v 4.01143746 0.43037975 1.23283270
v 4.00227290 0.43037975 1.26706764
v 4.04050075 0.43037975 1.35162931
v 4.00789316 0.43037975 1.22428435
v 3.99493113 0.43037975 1.27270040
v 4.00996911 0.43037975 1.36427493
v 3.98637417 0.43037975 1.27624116
v 3.97720961 0.43037975 1.27744891
v 3.97720961 0.43037975 1.20656283
v 4.00227290 0.43037975 1.21694410
v 3.99493113 0.43037975 1.21131118
v 3.98637417 0.43037975 1.20777042
v 4.01265265 0.73417722 1.24200587
v 4.01143746 0.73417722 1.23283270
v 4.09948809 0.73417722 1.27476774
v 4.00789316 0.73417722 1.22428435
v 4.01143746 0.73417722 1.25117903
v 4.00227290 0.73417722 1.21694410
v 4.08682987 0.73417722 1.30529701
v 4.00789316 0.73417722 1.25972739
v 3.99493113 0.73417722 1.21131118
v 3.98637417 0.73417722 1.20777042
v 3.97720961 0.73417722 1.20656283
v 3.97720961 0.73417722 1.27744891
v 4.06672860 0.73417722 1.33151306
v 4.00227290 0.73417722 1.26706764
v 4.04050075 0.73417722 1.35162931
v 3.99493113 0.73417722 1.27270040
v 4.00996911 0.73417722 1.36427493
v 3.98637417 0.73417722 1.27624116
f 1 2 3
f 2 1 4
f 5 6 7
f 6 5 8
f 9 10 11
f 10 9 12
f 3 13 14
f 13 3 2
f 15 16 17
f 16 15 18
f 19 18 15
f 18 19 20
f 21 16 22
f 16 21 17
f 23 24 25
f 24 23 26
f 27 28 29
f 28 27 30
f 14 9 11
f 9 14 13
f 31 7 32
f 7 31 5
f 12 32 10
f 32 12 31
f 33 20 19
f 20 33 34
f 8 22 6
f 22 8 21
f 35 36 37
f 36 35 38
f 30 39 28
f 39 30 40
f 41 29 42
f 29 41 27
f 43 44 45
f 44 43 46
f 45 34 33
f 34 45 44
f 25 47 48
f 47 25 24
f 38 23 36
f 23 38 26
f 40 37 39
f 37 40 35
f 41 46 43
f 46 41 42
f 48 4 1
f 4 48 47
f 49 50 51
f 50 49 52
f 53 54 55
f 54 53 56
f 57 58 59
f 58 57 60
f 61 62 63
f 62 61 64
f 65 66 67
f 66 65 68
f 51 69 70
f 69 51 50
f 71 72 73
f 72 71 74
f 75 74 71
f 74 75 76
f 56 77 54
f 77 56 78
f 79 80 81
f 80 79 82
f 64 83 62
f 83 64 84
f 85 86 87
f 86 85 88
f 70 65 67
f 65 70 69
f 89 55 90
f 55 89 53
f 68 90 66
f 90 68 89
f 91 76 75
f 76 91 92
f 78 72 77
f 72 78 73
f 60 93 58
f 93 60 94
f 84 59 83
f 59 84 57
f 61 88 85
f 88 61 63
f 87 92 91
f 92 87 86
f 81 95 96
f 95 81 80
f 94 79 93
f 79 94 82
f 96 52 49
f 52 96 95
f 97 98 99
f 98 97 100
f 101 102 103
f 102 101 104
f 105 106 107
f 106 105 108
f 109 110 111
f 110 109 112
f 113 112 109
f 112 113 114
f 104 115 102
f 115 104 116
f 117 118 119
f 118 117 120
f 121 122 123
f 122 121 124
f 125 105 107
f 105 125 126
f 99 126 125
f 126 99 98
f 127 103 128
f 103 127 101
f 108 128 106
f 128 108 127
f 129 114 113
f 114 129 130
f 116 110 115
f 110 116 111
f 119 100 97
f 100 119 118
f 131 132 133
f 132 131 134
f 124 135 122
f 135 124 136
f 137 123 138
f 123 137 121
f 139 140 141
f 140 139 142
f 141 130 129
f 130 141 140
f 143 120 117
f 120 143 144
f 136 133 135
f 133 136 131
f 137 142 139
f 142 137 138
f 134 143 132
f 143 134 144
f 145 146 147
f 146 145 148
f 149 150 151
f 150 149 152
f 153 154 155
f 154 153 156
f 157 158 159
f 158 157 160
f 161 162 163
f 162 161 164
f 147 164 161
f 164 147 146
f 165 166 167
f 166 165 168
f 169 166 168
f 166 169 170
f 171 167 172
f 167 171 165
f 173 155 174
f 155 173 153
f 162 174 163
f 174 162 173
f 151 170 169
f 170 151 150
f 156 172 154
f 172 156 171
f 175 148 145
f 148 175 176
f 177 178 179
f 178 177 180
f 179 176 175
f 176 179 178
f 181 182 183
f 182 181 184
f 183 152 149
f 152 183 182
f 185 184 181
f 184 185 186
f 160 187 158
f 187 160 188
f 188 177 187
f 177 188 180
f 189 190 191
f 190 189 192
f 185 191 186
f 191 185 189
f 192 159 190
f 159 192 157
f 193 33 194
f 195 33 193
f 33 195 196
f 197 146 148
f 197 164 146
f 197 162 164
f 197 173 162
f 197 153 173
f 197 156 153
f 197 171 156
f 127 171 197
f 151 100 149
f 98 151 169
f 126 169 168
f 105 168 165
f 171 127 165
f 151 98 100
f 169 126 98
f 168 105 126
f 165 108 105
f 165 127 108
f 197 101 127
f 113 52 129
f 50 113 109
f 69 109 111
f 65 111 116
f 68 116 104
f 89 104 101
f 113 50 52
f 109 69 50
f 111 65 69
f 53 101 197
f 116 68 65
f 104 89 68
f 101 53 89
f 75 4 91
f 2 75 71
f 13 71 73
f 9 73 78
f 12 78 56
f 194 56 53
f 75 2 4
f 71 13 2
f 73 9 13
f 78 12 9
f 194 53 197
f 56 31 12
f 56 194 31
f 31 194 5
f 194 8 5
f 194 21 8
f 194 17 21
f 194 15 17
f 194 19 15
f 19 194 33
f 176 198 148
f 178 198 176
f 180 198 178
f 188 198 180
f 160 198 188
f 157 198 160
f 192 198 157
f 131 192 189
f 100 183 149
f 118 183 100
f 183 118 181
f 120 181 118
f 181 120 185
f 144 185 120
f 185 144 189
f 134 189 144
f 131 189 134
f 192 131 198
f 136 198 131
f 52 141 129
f 95 141 52
f 141 95 139
f 80 139 95
f 139 80 137
f 82 137 80
f 137 82 121
f 94 121 82
f 121 94 124
f 60 124 94
f 124 60 136
f 57 136 60
f 136 57 198
f 4 87 91
f 47 87 4
f 87 47 85
f 24 85 47
f 85 24 61
f 26 61 24
f 61 26 64
f 38 64 26
f 64 38 84
f 35 84 38
f 196 84 35
f 84 196 57
f 196 35 40
f 57 196 198
f 30 196 40
f 27 196 30
f 41 196 27
f 43 196 41
f 45 196 43
f 196 45 33
f 148 199 197
f 200 148 198
f 148 200 199
f 199 194 197
f 194 199 193
f 195 199 200
f 199 195 193
f 195 198 196
f 198 195 200
f 34 201 202
f 203 34 204
f 34 203 201
f 201 205 206
f 205 201 203
f 206 145 207
f 205 145 206
f 145 205 208
f 208 175 145
f 208 179 175
f 208 177 179
f 208 187 177
f 208 158 187
f 208 159 158
f 208 190 159
f 133 190 208
f 182 97 152
f 119 182 184
f 117 184 186
f 143 186 191
f 190 133 191
f 182 119 97
f 184 117 119
f 186 143 117
f 191 132 143
f 191 133 132
f 208 135 133
f 140 49 130
f 96 140 142
f 81 142 138
f 79 138 123
f 93 123 122
f 58 122 135
f 140 96 49
f 142 81 96
f 138 79 81
f 59 135 208
f 123 93 79
f 122 58 93
f 135 59 58
f 86 1 92
f 48 86 88
f 25 88 63
f 23 63 62
f 36 62 83
f 204 83 59
f 86 48 1
f 88 25 48
f 63 23 25
f 62 36 23
f 204 59 208
f 83 37 36
f 83 204 37
f 37 204 39
f 204 28 39
f 204 29 28
f 204 42 29
f 204 46 42
f 204 44 46
f 44 204 34
f 147 207 145
f 161 207 147
f 163 207 161
f 174 207 163
f 155 207 174
f 154 207 155
f 172 207 154
f 128 172 167
f 97 150 152
f 99 150 97
f 150 99 170
f 125 170 99
f 170 125 166
f 107 166 125
f 166 107 167
f 106 167 107
f 128 167 106
f 172 128 207
f 103 207 128
f 49 114 130
f 51 114 49
f 114 51 112
f 70 112 51
f 112 70 110
f 67 110 70
f 110 67 115
f 66 115 67
f 115 66 102
f 90 102 66
f 102 90 103
f 55 103 90
f 103 55 207
f 1 76 92
f 3 76 1
f 76 3 74
f 14 74 3
f 74 14 72
f 11 72 14
f 72 11 77
f 10 77 11
f 77 10 54
f 32 54 10
f 202 54 32
f 54 202 55
f 202 32 7
f 55 202 207
f 6 202 7
f 22 202 6
f 16 202 22
f 18 202 16
f 20 202 18
f 202 20 34
f 204 205 203
f 205 204 208
f 207 201 206
f 201 207 202
f 209 210 211
f 210 209 212
f 213 214 215
f 214 213 216
f 217 218 219
f 218 217 220
f 221 222 223
f 222 221 224
f 211 224 221
f 224 211 210
f 225 226 227
f 226 225 228
f 229 226 228
f 226 229 230
f 231 227 232
f 227 231 225
f 233 234 235
f 234 233 236
f 237 238 239
f 240 241 242
f 243 244 238
f 243 245 244
f 241 240 245
f 242 246 240
f 220 246 242
f 220 247 246
f 220 248 247
f 217 248 220
f 248 217 249
f 236 249 217
f 249 236 250
f 233 250 236
f 250 233 251
f 252 251 233
f 239 212 237
f 238 237 253
f 212 239 210
f 254 210 239
f 238 253 243
f 245 243 241
f 210 254 224
f 255 224 254
f 224 255 222
f 256 222 255
f 257 222 256
f 258 222 257
f 259 258 260
f 259 260 261
f 258 259 222
f 262 259 261
f 263 259 262
f 228 263 264
f 263 228 259
f 259 231 265
f 229 264 266
f 215 266 267
f 251 252 268
f 259 225 231
f 269 268 252
f 259 228 225
f 268 269 267
f 264 229 228
f 213 267 269
f 266 215 229
f 267 213 215
f 215 230 229
f 230 215 214
f 232 270 271
f 227 270 232
f 226 270 227
f 270 226 272
f 230 272 226
f 273 209 211
f 274 211 221
f 209 273 275
f 276 221 223
f 277 275 273
f 275 277 278
f 279 278 277
f 211 274 273
f 221 276 274
f 223 280 276
f 223 281 280
f 223 282 281
f 270 282 223
f 282 270 283
f 283 270 284
f 270 285 284
f 270 286 285
f 286 270 272
f 278 279 287
f 288 287 279
f 287 288 289
f 290 289 288
f 289 290 291
f 292 291 290
f 293 291 292
f 293 218 291
f 294 218 293
f 219 294 295
f 234 295 296
f 235 296 297
f 294 219 218
f 298 297 299
f 300 299 301
f 272 230 302
f 295 234 219
f 214 302 230
f 296 235 234
f 302 214 301
f 297 298 235
f 216 301 214
f 299 300 298
f 301 216 300
f 265 232 271
f 232 265 231
f 275 212 209
f 212 275 237
f 220 291 218
f 291 220 242
f 241 287 289
f 287 241 243
f 236 219 234
f 219 236 217
f 233 298 252
f 298 233 235
f 269 216 213
f 216 269 300
f 242 289 291
f 289 242 241
f 278 237 275
f 237 278 253
f 287 253 278
f 253 287 243
f 252 300 269
f 300 252 298
f 239 274 254
f 274 239 273
f 301 266 302
f 266 301 267
f 260 282 283
f 282 260 258
f 247 294 293
f 294 247 248
f 257 280 281
f 280 257 256
f 254 276 255
f 276 254 274
f 258 281 282
f 281 258 257
f 263 285 286
f 285 263 262
f 272 263 286
f 263 272 264
f 262 284 285
f 284 262 261
f 245 279 244
f 279 245 288
f 244 277 238
f 277 244 279
f 249 296 295
f 296 249 250
f 255 280 256
f 280 255 276
f 302 264 272
f 264 302 266
f 261 283 284
f 283 261 260
f 238 273 239
f 273 238 277
f 246 293 292
f 293 246 247
f 245 290 288
f 290 245 240
f 248 295 294
f 295 248 249
f 296 251 297
f 251 296 250
f 299 267 301
f 267 299 268
f 240 292 290
f 292 240 246
f 297 268 299
f 268 297 251
f 303 304 305
f 304 303 306
f 307 308 309
f 308 307 310
f 311 312 313
f 312 311 314
f 315 316 317
f 316 315 318
f 305 318 315
f 318 305 304
f 319 320 321
f 320 319 322
f 323 320 322
f 320 323 324
f 325 321 326
f 321 325 319
f 327 328 329
f 328 327 330
f 331 332 333
f 334 335 336
f 337 338 332
f 337 339 338
f 335 334 339
f 336 340 334
f 314 340 336
f 314 341 340
f 314 342 341
f 311 342 314
f 342 311 343
f 330 343 311
f 343 330 344
f 327 344 330
f 344 327 345
f 346 345 327
f 333 306 331
f 332 331 347
f 306 333 304
f 348 304 333
f 332 347 337
f 339 337 335
f 304 348 318
f 349 318 348
f 318 349 316
f 350 316 349
f 351 316 350
f 352 316 351
f 353 352 354
f 353 354 355
f 352 353 316
f 356 353 355
f 357 353 356
f 322 357 358
f 357 322 353
f 353 325 359
f 323 358 360
f 309 360 361
f 345 346 362
f 353 319 325
f 363 362 346
f 353 322 319
f 362 363 361
f 358 323 322
f 307 361 363
f 360 309 323
f 361 307 309
f 309 324 323
f 324 309 308
f 326 364 365
f 321 364 326
f 320 364 321
f 364 320 366
f 324 366 320
f 367 303 305
f 368 305 315
f 303 367 369
f 370 315 317
f 371 369 367
f 369 371 372
f 373 372 371
f 305 368 367
f 315 370 368
f 317 374 370
f 317 375 374
f 317 376 375
f 364 376 317
f 376 364 377
f 377 364 378
f 364 379 378
f 364 380 379
f 380 364 366
f 372 373 381
f 382 381 373
f 381 382 383
f 384 383 382
f 383 384 385
f 386 385 384
f 387 385 386
f 387 312 385
f 388 312 387
f 313 388 389
f 328 389 390
f 329 390 391
f 388 313 312
f 392 391 393
f 394 393 395
f 366 324 396
f 389 328 313
f 308 396 324
f 390 329 328
f 396 308 395
f 391 392 329
f 310 395 308
f 393 394 392
f 395 310 394
f 359 326 365
f 326 359 325
f 369 306 303
f 306 369 331
f 314 385 312
f 385 314 336
f 335 381 383
f 381 335 337
f 330 313 328
f 313 330 311
f 327 392 346
f 392 327 329
f 363 310 307
f 310 363 394
f 336 383 385
f 383 336 335
f 372 331 369
f 331 372 347
f 381 347 372
f 347 381 337
f 346 394 363
f 394 346 392
f 333 368 348
f 368 333 367
f 395 360 396
f 360 395 361
f 354 376 377
f 376 354 352
f 341 388 387
f 388 341 342
f 351 374 375
f 374 351 350
f 348 370 349
f 370 348 368
f 352 375 376
f 375 352 351
f 357 379 380
f 379 357 356
f 366 357 380
f 357 366 358
f 356 378 379
f 378 356 355
f 339 373 338
f 373 339 382
f 338 371 332
f 371 338 373
f 343 390 389
f 390 343 344
f 349 374 350
f 374 349 370
f 396 358 366
f 358 396 360
f 355 377 378
f 377 355 354
f 332 367 333
f 367 332 371
f 340 387 386
f 387 340 341
f 339 384 382
f 384 339 334
f 342 389 388
f 389 342 343
f 390 345 391
f 345 390 344
f 393 361 395
f 361 393 362
f 334 386 384
f 386 334 340
f 391 362 393
f 362 391 345
f 397 398 399
f 400 398 397
f 398 400 401
f 399 398 402
f 403 404 405
f 403 406 404
f 407 406 403
f 408 406 407
f 406 408 199
f 408 193 199
f 398 193 408
f 193 398 401
f 405 409 410
f 411 405 404
f 405 411 409
f 410 412 413
f 412 410 414
f 415 410 409
f 410 415 414
f 414 399 412
f 399 414 397
f 400 414 415
f 414 400 397
f 400 193 401
f 193 400 199
f 415 199 400
f 199 415 411
f 411 415 409
f 207 416 206
f 197 416 207
f 411 197 199
f 197 411 416
f 412 417 413
f 412 418 417
f 399 418 412
f 402 418 399
f 418 402 419
f 413 417 420
f 407 417 418
f 417 407 403
f 419 407 418
f 407 419 408
f 398 419 402
f 419 398 408
f 270 359 271
f 359 270 353
f 271 403 265
f 405 265 403
f 265 405 259
f 403 271 417
f 359 417 271
f 365 417 359
f 420 365 364
f 365 420 417
f 259 405 222
f 353 270 316
f 317 420 364
f 420 317 413
f 316 413 317
f 223 316 270
f 223 413 316
f 410 223 222
f 223 410 413
f 410 222 405
f 197 406 199
f 406 197 421
f 207 421 197
f 421 207 206
f 421 416 422
f 416 421 206
f 416 404 422
f 404 416 411
f 404 421 422
f 421 404 406
f 423 424 425
f 424 423 426
f 427 428 429
f 428 427 430
f 431 432 433
f 432 431 434
f 435 436 437
f 436 435 438
f 425 439 440
f 439 425 424
f 441 442 443
f 442 441 444
f 445 444 441
f 444 445 446
f 447 442 448
f 442 447 443
f 449 450 451
f 450 449 452
f 453 454 455
f 454 453 456
f 440 435 437
f 435 440 439
f 457 429 458
f 429 457 427
f 438 458 436
f 458 438 457
f 459 446 445
f 446 459 460
f 430 448 428
f 448 430 447
f 434 461 432
f 461 434 462
f 456 433 454
f 433 456 431
f 463 455 464
f 455 463 453
f 465 466 467
f 466 465 468
f 467 460 459
f 460 467 466
f 451 469 470
f 469 451 450
f 462 449 461
f 449 462 452
f 463 468 465
f 468 463 464
f 470 426 423
f 426 470 469
f 471 472 473
f 472 471 474
f 475 476 477
f 476 475 478
f 479 480 481
f 480 479 482
f 483 484 485
f 484 483 486
f 473 487 488
f 487 473 472
f 489 490 491
f 490 489 492
f 493 492 489
f 492 493 494
f 495 490 496
f 490 495 491
f 497 498 499
f 498 497 500
f 501 502 503
f 502 501 504
f 488 483 485
f 483 488 487
f 505 477 506
f 477 505 475
f 486 506 484
f 506 486 505
f 507 494 493
f 494 507 508
f 478 496 476
f 496 478 495
f 482 509 480
f 509 482 510
f 504 481 502
f 481 504 479
f 511 503 512
f 503 511 501
f 513 514 515
f 514 513 516
f 515 508 507
f 508 515 514
f 499 517 518
f 517 499 498
f 510 497 509
f 497 510 500
f 511 516 513
f 516 511 512
f 518 474 471
f 474 518 517
f 519 520 521
f 520 519 522
f 523 524 525
f 524 523 526
f 527 528 529
f 528 527 530
f 521 531 532
f 531 521 520
f 533 534 535
f 534 533 536
f 537 536 533
f 536 537 538
f 539 534 540
f 534 539 535
f 541 542 543
f 542 541 544
f 545 546 547
f 546 545 548
f 532 527 529
f 527 532 531
f 549 525 550
f 525 549 523
f 530 550 528
f 550 530 549
f 551 538 537
f 538 551 552
f 526 540 524
f 540 526 539
f 553 522 519
f 522 553 554
f 555 556 557
f 556 555 558
f 548 559 546
f 559 548 560
f 561 547 562
f 547 561 545
f 563 564 565
f 564 563 566
f 565 552 551
f 552 565 564
f 543 554 553
f 554 543 542
f 558 541 556
f 541 558 544
f 560 557 559
f 557 560 555
f 561 566 563
f 566 561 562
f 567 459 568
f 569 459 567
f 459 569 570
f 571 522 572
f 571 520 522
f 571 531 520
f 571 527 531
f 571 530 527
f 571 549 530
f 571 523 549
f 537 474 551
f 472 537 533
f 487 533 535
f 483 535 539
f 486 539 526
f 537 472 474
f 505 526 523
f 533 487 472
f 475 523 571
f 535 483 487
f 539 486 483
f 526 505 486
f 523 475 505
f 493 426 507
f 424 493 489
f 439 489 491
f 435 491 495
f 438 495 478
f 493 424 426
f 568 478 475
f 489 439 424
f 491 435 439
f 495 438 435
f 568 475 571
f 478 457 438
f 478 568 457
f 457 568 427
f 568 430 427
f 568 447 430
f 568 443 447
f 568 441 443
f 568 445 441
f 445 568 459
f 554 572 522
f 542 572 554
f 544 572 542
f 558 572 544
f 555 572 558
f 560 572 555
f 474 565 551
f 517 565 474
f 565 517 563
f 498 563 517
f 563 498 561
f 500 561 498
f 561 500 545
f 510 545 500
f 545 510 548
f 482 548 510
f 548 482 560
f 479 560 482
f 560 479 572
f 426 515 507
f 469 515 426
f 515 469 513
f 450 513 469
f 513 450 511
f 452 511 450
f 511 452 501
f 462 501 452
f 501 462 504
f 434 504 462
f 570 504 434
f 504 570 479
f 570 434 431
f 479 570 572
f 456 570 431
f 453 570 456
f 463 570 453
f 465 570 463
f 467 570 465
f 570 467 459
f 573 574 575
f 574 573 576
f 577 578 579
f 578 577 580
f 581 582 574
f 575 583 584
f 574 583 575
f 579 574 582
f 571 574 579
f 574 571 583
f 578 571 579
f 567 571 578
f 571 567 568
f 584 583 585
f 569 578 580
f 578 569 567
f 570 569 572
f 586 587 588
f 587 586 573
f 586 576 573
f 576 577 589
f 572 576 586
f 576 572 577
f 572 580 577
f 580 572 569
f 589 577 590
f 460 584 585
f 587 460 588
f 460 587 584
f 584 573 575
f 573 584 587
f 586 519 583
f 586 553 519
f 586 543 553
f 586 541 543
f 586 556 541
f 586 557 556
f 586 559 557
f 564 471 552
f 518 564 566
f 499 566 562
f 497 562 547
f 509 547 546
f 564 518 471
f 480 546 559
f 566 499 518
f 481 559 586
f 562 497 499
f 547 509 497
f 546 480 509
f 559 481 480
f 514 423 508
f 470 514 516
f 451 516 512
f 449 512 503
f 461 503 502
f 514 470 423
f 588 502 481
f 516 451 470
f 512 449 451
f 503 461 449
f 588 481 586
f 502 432 461
f 502 588 432
f 432 588 433
f 588 454 433
f 588 455 454
f 588 464 455
f 588 468 464
f 588 466 468
f 466 588 460
f 521 583 519
f 532 583 521
f 529 583 532
f 528 583 529
f 550 583 528
f 525 583 550
f 471 538 552
f 473 538 471
f 538 473 536
f 488 536 473
f 536 488 534
f 485 534 488
f 534 485 540
f 484 540 485
f 540 484 524
f 506 524 484
f 524 506 525
f 477 525 506
f 525 477 583
f 423 494 508
f 425 494 423
f 494 425 492
f 440 492 425
f 492 440 490
f 437 490 440
f 490 437 496
f 436 496 437
f 496 436 476
f 458 476 436
f 585 476 458
f 476 585 477
f 585 458 429
f 477 585 583
f 428 585 429
f 448 585 428
f 442 585 448
f 444 585 442
f 446 585 444
f 585 446 460
f 591 592 593
f 592 591 594
f 595 596 597
f 596 595 598
f 599 600 601
f 600 599 602
f 603 604 605
f 604 603 606
f 593 606 603
f 606 593 592
f 604 607 605
f 607 604 608
f 609 610 611
f 610 609 612
f 582 610 612
f 610 582 581
f 613 611 614
f 611 613 609
f 615 616 617
f 616 615 618
f 619 594 620
f 621 620 622
f 594 619 592
f 623 622 624
f 625 592 619
f 626 624 627
f 592 625 606
f 628 606 625
f 620 621 619
f 629 627 630
f 622 623 621
f 624 626 623
f 627 629 626
f 630 631 629
f 602 631 630
f 602 632 631
f 599 632 602
f 618 632 599
f 615 632 618
f 582 633 590
f 590 632 615
f 612 633 582
f 632 590 633
f 633 613 598
f 633 609 613
f 633 612 609
f 577 582 590
f 582 577 579
f 606 628 604
f 634 604 628
f 604 634 608
f 635 608 634
f 608 635 595
f 636 595 635
f 633 595 636
f 595 633 598
f 608 597 607
f 597 608 595
f 637 591 593
f 638 593 603
f 591 637 639
f 640 603 605
f 641 639 637
f 642 605 607
f 639 641 643
f 644 643 641
f 593 638 637
f 645 607 597
f 603 640 638
f 605 642 640
f 607 645 642
f 597 646 645
f 596 646 597
f 596 647 646
f 614 647 596
f 611 647 614
f 610 647 611
f 589 648 581
f 581 647 610
f 617 648 589
f 647 581 648
f 648 601 600
f 648 616 601
f 648 617 616
f 574 589 581
f 589 574 576
f 643 644 649
f 650 649 644
f 649 650 651
f 652 651 650
f 651 652 653
f 654 653 652
f 648 653 654
f 653 648 600
f 598 614 596
f 614 598 613
f 639 594 591
f 594 639 620
f 602 653 600
f 653 602 630
f 627 649 651
f 649 627 624
f 618 601 616
f 601 618 599
f 615 589 590
f 589 615 617
f 630 651 653
f 651 630 627
f 643 620 639
f 620 643 622
f 649 622 643
f 622 649 624
f 619 638 625
f 638 619 637
f 633 646 647
f 646 633 636
f 635 642 645
f 642 635 634
f 625 640 628
f 640 625 638
f 636 645 646
f 645 636 635
f 626 644 623
f 644 626 650
f 623 641 621
f 641 623 644
f 628 642 634
f 642 628 640
f 621 637 619
f 637 621 641
f 631 648 654
f 648 631 632
f 626 652 650
f 652 626 629
f 629 654 652
f 654 629 631
f 648 633 647
f 633 648 632
f 572 583 571
f 583 572 586

