# https://github.com/mikedh/trimesh
v -2.17667794 0.00000000 -2.61665049
v -2.17667794 0.00000000 2.47425860
v 2.14150388 0.00000000 -2.61665049
v 2.14150388 0.00000000 2.47425860
v -2.21304153 0.13636364 2.54698588
v -2.17213251 0.13636364 2.54698588
v 2.17786752 0.13636364 -2.68937776
v 2.13695842 0.13636364 -2.68937776
v -2.21304153 0.13636364 -2.65301412
v 2.17786752 0.13636364 2.51062220
v -1.63122339 0.04545455 2.52880406
v 1.55059479 0.04545455 2.52880406
v -0.01758703 3.86363636 2.92880406
v -0.20427339 3.79496818 2.92880406
v 0.16909933 3.79496818 2.92880406
v -0.39096430 3.70584545 2.92880406
v -1.69778248 3.08198182 2.92880406
v -2.63122339 2.63636364 2.92880406
v -2.63122339 2.51082273 2.92880406
v 0.35579024 3.70584545 2.92880406
v 2.40936752 2.72548636 2.92880406
v 2.59604933 2.63636364 2.92880406
v 2.59604933 2.51082273 2.92880406
v -0.01758703 3.86363636 -3.07119594
v 0.16909933 3.79496818 -3.07119594
v -0.20427339 3.79496818 -3.07119594
v 0.35579024 3.70584545 -3.07119594
v 2.40936752 2.72548636 -3.07119594
v 2.59604933 2.63636364 -3.07119594
v 2.59604933 2.51082273 -3.07119594
v -0.39096430 3.70584545 -3.07119594
v -1.69778248 3.08198182 -3.07119594
v -2.63122339 2.63636364 -3.07119594
v -2.63122339 2.51082273 -3.07119594
f 11 5 2
f 8 9 34
f 9 8 1
f 10 12 4
f 23 12 10
f 6 12 23
f 33 19 18
f 34 19 33
f 9 19 34
f 5 19 9
f 3 4 1
f 1 4 2
f 5 9 1
f 2 5 1
f 2 4 12
f 12 11 2
f 15 25 24
f 24 13 15
f 22 23 30
f 30 29 22
f 26 14 13
f 26 13 24
f 26 16 14
f 31 16 26
f 6 19 5
f 6 23 19
f 11 12 6
f 5 11 6
f 3 1 7
f 7 1 8
f 34 30 7
f 7 8 34
f 7 4 3
f 7 10 4
f 7 30 23
f 23 10 7
f 22 29 21
f 29 28 21
f 17 33 18
f 17 32 33
f 17 16 31
f 31 32 17
f 20 23 22
f 18 19 20
f 22 21 20
f 13 14 20
f 19 23 20
f 20 15 13
f 14 16 20
f 20 17 18
f 16 17 20
f 24 25 27
f 34 33 27
f 27 30 34
f 27 26 24
f 27 28 29
f 29 30 27
f 31 26 27
f 33 32 27
f 27 32 31
f 25 15 27
f 15 20 27
f 27 21 28
f 27 20 21

