# https://github.com/mikedh/trimesh
v -2.78513970 0.00000000 -1.40042114
v -2.78513970 0.00000000 1.39957886
v 2.71486030 0.00000000 -1.40042114
v 2.71486030 0.00000000 1.39957886
v -2.80513968 0.07500000 1.43957886
v -2.78263972 0.07500000 1.43957886
v 2.73486030 0.07500000 1.41957883
v 2.73486030 0.07500000 -1.44042114
v 2.71236030 0.07500000 -1.44042114
v -2.80513968 0.07500000 -1.42042114
v 0.58986030 0.02500000 -1.43042114
v -0.16013970 0.02500000 -1.43042114
v 2.74486030 0.02500000 -0.30042114
v 2.74486030 0.02500000 -1.05042114
v -3.03513970 1.45000000 -1.65042114
v -3.03513970 1.38247250 -1.65042114
v -3.03513970 1.57867250 -1.34104614
v -3.03513970 2.09336000 -0.10354614
v -3.03513970 2.12500000 -0.00042114
v -3.03513970 2.09336000 0.10270386
v -3.03513970 1.57867250 1.34020386
v -3.03513970 1.45000000 1.64957886
v -3.03513970 1.38247250 1.64957886
v 2.96486030 1.45000000 -1.65042114
v 2.96486030 1.38247250 -1.65042114
v 2.96486030 1.57867250 -1.34104614
v 2.96486030 2.09336000 -0.10354614
v 2.96486030 2.12500000 -0.00042114
v 2.96486030 2.09336000 0.10270386
v 2.96486030 1.57867250 1.34020386
v 2.96486030 1.45000000 1.64957886
v 2.96486030 1.38247250 1.64957886
f 8 14 3
f 8 25 14
f 1 10 12
f 12 10 16
f 7 4 13
f 7 13 32
f 32 6 7
f 6 4 7
f 11 8 3
f 9 12 16
f 22 23 31
f 31 23 32
f 24 25 15
f 15 25 16
f 13 25 32
f 14 25 13
f 19 20 29
f 29 28 19
f 32 23 5
f 5 6 32
f 2 5 10
f 10 1 2
f 23 16 10
f 10 5 23
f 2 1 4
f 4 1 3
f 14 13 4
f 3 14 4
f 4 5 2
f 6 5 4
f 28 27 18
f 19 28 18
f 22 31 30
f 30 21 22
f 20 21 30
f 30 29 20
f 26 31 32
f 32 25 26
f 26 25 24
f 26 30 31
f 26 27 28
f 28 29 26
f 29 30 26
f 3 1 11
f 1 12 11
f 16 25 9
f 25 8 9
f 9 11 12
f 8 11 9
f 17 16 23
f 19 18 17
f 17 23 22
f 22 21 17
f 17 20 19
f 17 15 16
f 17 21 20
f 24 15 17
f 17 26 24
f 17 18 27
f 27 26 17

